<?xml version="1.0" encoding="UTF-8"?>
<svg xmlns="http://www.w3.org/2000/svg" version="1.1" viewBox="0 0 42.52 42.52">
  <defs>
    <style>
      .cls-1 {
        fill: #342211;
      }
    </style>
  </defs>
  <!-- Generator: Adobe Illustrator 28.6.0, SVG Export Plug-In . SVG Version: 1.2.0 Build 709)  -->
  <g>
    <g id="Ebene_1">
      <path class="cls-1" d="M35.34,16c-.11-.13-.17-.34-.14-.5.38-2.4-.95-4.63-3.31-5.55-.18-.07-.35-.24-.42-.41-.96-2.26-3.28-3.54-5.79-3.17-.16.02-.38-.04-.52-.14-2.03-1.54-4.66-1.54-6.7,0-.14.1-.35.16-.52.14-1.24-.18-2.44.03-3.48.6-1.04.57-1.84,1.46-2.31,2.58-.07.17-.25.34-.42.41-2.36.92-3.7,3.15-3.31,5.55.02.16-.03.36-.14.5-1.6,1.96-1.6,4.48,0,6.43.11.13.17.34.15.49-.19,1.19.03,2.35.62,3.34.39.65.92,1.2,1.56,1.64.11.32.38.5.79.5.04,0,.08,0,.13,0,.02,0,.03.01.05.02v-.02c.74,0,1.48,0,2.23,0,.1,0,.23.04.3.11,1.78,1.77,3.56,3.55,5.34,5.33.05.05.11.12.11.18,0,.63,0,1.26,0,1.91-.11,0-.19,0-.27,0-.76,0-1.52,0-2.27,0-.89,0-1.78,0-2.67,0-.39,0-.68.23-.76.59-.08.33.1.67.43.84.03.02.07.04.1.06h15.4c.14-.12.32-.21.43-.36.17-.23.17-.5.02-.75-.15-.27-.4-.39-.71-.39-1.64,0-3.28,0-4.92,0h-.27c0-.65,0-1.26,0-1.86,0-.08.06-.19.13-.25,1.76-1.77,3.53-3.54,5.3-5.3.08-.08.21-.13.32-.13.74-.01,1.49,0,2.23,0v.02s.03-.01.05-.02c.04,0,.08,0,.12,0,.41,0,.68-.18.79-.5.65-.43,1.18-.98,1.57-1.64.59-1,.81-2.15.62-3.34-.02-.16.04-.36.15-.49,1.59-1.95,1.59-4.47,0-6.43ZM13.54,26.88h-1.47v-1.47h1.47v1.47ZM19.54,31.7c-1.09-1.09-2.2-2.2-3.29-3.29h3.29v3.29ZM15.07,26.88v-1.47h1.48v1.47h-1.48ZM19.54,26.88h-1.47v-1.47h1.47v1.47ZM22.54,35.93h-1.47v-7.52h1.47v7.52ZM22.55,26.88h-1.48v-4.47h1.48v4.47ZM24.06,23.88c0-.66,0-1.3,0-1.95,0-.1,0-.2,0-.3-.02-.41-.33-.73-.74-.73-1.01,0-2.02,0-3.02,0-.43,0-.73.34-.73.79,0,.72,0,1.45,0,2.19h-4.49v-4.47h13.47v4.47h-4.48ZM15.32,17.89c.07-.06.11-.1.16-.13,2.05-1.38,4.1-2.76,6.15-4.14.11-.08.19-.11.33-.02,2.08,1.41,4.17,2.81,6.26,4.21.02.01.04.03.12.08h-13.01ZM24.07,25.41h1.47v1.47h-1.47v-1.47ZM24.08,31.72v-3.32h3.32c-1.1,1.1-2.22,2.22-3.32,3.32ZM28.54,26.88h-1.47v-1.48h1.47v1.48ZM31.54,26.88h-1.47v-1.47h1.47v1.47ZM33.27,21.8c-.27.21-.3.35-.18.67.36.95.33,1.88-.03,2.65,0-.14,0-.27,0-.41,0-.52-.31-.82-.83-.82-.62,0-1.23,0-1.85,0h-.31v-4.5c.23,0,.44,0,.66,0,.41,0,.68-.18.79-.52.11-.34,0-.66-.34-.88-2.96-1.99-5.91-3.98-8.87-5.97-.34-.23-.66-.23-.99,0-2.95,1.99-5.9,3.97-8.85,5.95-.34.23-.47.54-.37.87.11.35.38.54.8.55.22,0,.44,0,.65,0v4.5c-.72,0-1.43,0-2.13,0-.55,0-.85.3-.85.85,0,.12,0,.24,0,.36-.35-.75-.39-1.62-.08-2.48.16-.43.11-.62-.26-.92-.79-.65-1.23-1.51-1.24-2.44-.01-.95.42-1.84,1.22-2.52.02-.01.03-.03.05-.05.06-.05.12-.11.19-.15.2-.11.23-.23.12-.48-.5-1.19-.39-2.29.34-3.27.56-.76,1.4-1.22,2.49-1.35.22-.03.28-.09.31-.3.2-1.38.94-2.32,2.2-2.79.82-.31,1.66-.29,2.49.04.33.13.5.09.75-.2,1.25-1.44,3.23-1.69,4.7-.61.25.19.51.43.78.76.13.16.23.19.43.11,1.03-.41,2.01-.41,2.9,0,1.07.48,1.72,1.32,1.93,2.48.05.26.07.38.13.44.06.06.2.08.46.13,1.07.19,1.94.75,2.44,1.57.5.82.59,1.81.24,2.8,0,0,0,.02,0,.03,0,.03-.02.06-.04.1-.17.26-.12.42.2.67.87.7,1.35,1.61,1.35,2.57,0,.97-.49,1.89-1.37,2.59Z"/>
    </g>
  </g>
</svg>