<svg xmlns="http://www.w3.org/2000/svg" xmlns:xlink="http://www.w3.org/1999/xlink" width="49" height="49" viewBox="0 0 49 49"><defs><clipPath id="b"><rect width="49" height="49"/></clipPath></defs><g id="a" clip-path="url(#b)"><g transform="translate(9.988 15.147)"><path d="M1036.457,811.362a2.313,2.313,0,0,0-2.323,2.289l-.121,16.167a.525.525,0,0,0,.518.526l3.568.027a.525.525,0,0,0,.526-.519l.019-2.6,20.164.151-.019,2.6a.525.525,0,0,0,.523.526l3.563.027a.525.525,0,0,0,.53-.519l.084-11.121a2.309,2.309,0,1,0-4.617-.034l-.017,2.386-12.963-.1v-.032a3.574,3.574,0,0,0-3.543-3.6l-3.631-.027.029-3.832A2.313,2.313,0,0,0,1036.457,811.362Zm-.008,1.045a1.248,1.248,0,0,1,1.249,1.271l-.06,7.956-.038,5.088-.019,2.6-2.516-.019.117-15.641A1.246,1.246,0,0,1,1036.45,812.407Zm24.739,5.231a1.249,1.249,0,0,1,1.252,1.272l-.079,10.594-2.52-.019.019-2.6.038-5.088.022-2.91A1.248,1.248,0,0,1,1061.188,817.638Zm-22.475.926,3.628.027a2.506,2.506,0,0,1,2.5,2.541v.03l-6.149-.047Zm-.031,3.6,20.164.151-.03,4.036-20.164-.151Z" transform="translate(-1034.013 -811.362)" fill="#342211" stroke="#422c16" stroke-width="0.5"/></g></g></svg>