<svg xmlns="http://www.w3.org/2000/svg" xmlns:xlink="http://www.w3.org/1999/xlink" width="49" height="49" viewBox="0 0 49 49"><defs><clipPath id="b"><rect width="49" height="49"/></clipPath></defs><g id="a" clip-path="url(#b)"><path d="M1189.28,804.066l-33.817-.029a2.454,2.454,0,0,0-2.453,2.447l-.017,20.666a1.727,1.727,0,0,0,3.454,0V825.8l31.809.027,0,1.351a1.727,1.727,0,1,0,3.455,0l.017-20.665A2.452,2.452,0,0,0,1189.28,804.066Zm-7.709,17.455,0,3.2-5.408,0,0-3.2Zm0-4.853,0,3.749-5.408,0,0-3.749Zm0-4.852,0,3.749-5.408,0,0-3.749Zm0-4.3,0,3.2-5.409,0,0-3.2Zm-6.524,14,0,3.2-5.409,0,0-3.2Zm0-4.853,0,3.749-5.409,0,0-3.749Zm0-4.853,0,3.749-5.408,0,0-3.749Zm0-4.3,0,3.2-5.408,0,0-3.2Zm-6.524,14,0,3.2-5.408,0,0-3.2Zm0-4.853,0,3.749-5.408-.005,0-3.749Zm0-4.853,0,3.749-5.408,0,0-3.749Zm0-4.3,0,3.2-5.408,0,0-3.2Zm19.713.327,0,2.889-5.585-.006,0-3.2,5.276,0A.311.311,0,0,1,1188.272,807.829Zm-.308-1.413-31.191-.027a1.415,1.415,0,0,0-1.413,1.413l-.016,19.351a.624.624,0,0,1-1.248,0l.018-20.666a1.346,1.346,0,0,1,1.348-1.344l33.816.029a1.347,1.347,0,0,1,1.346,1.347l-.018,20.665a.623.623,0,1,1-1.246,0l.016-19.351A1.415,1.415,0,0,0,1187.964,806.416Zm-25.916,1.081,0,3.2-5.584-.005,0-2.888a.308.308,0,0,1,.308-.309Zm0,4.3,0,3.749-5.584,0,0-3.749Zm0,4.852,0,3.749-5.584,0,0-3.749Zm0,4.853,0,3.2-5.585-.006,0-3.2Zm26.232-9.683,0,3.749-5.585,0,0-3.749Zm0,4.852,0,3.749-5.585,0,0-3.749Zm0,4.853,0,3.2-5.586-.005,0-3.2Z" transform="translate(-1148.142 -791.998)" fill="#332212"/></g></svg>