<?xml version="1.0" encoding="UTF-8"?>
<svg xmlns="http://www.w3.org/2000/svg" version="1.1" viewBox="0 0 42.52 42.52">
  <defs>
    <style>
      .cls-1 {
        fill: #422d17;
      }
    </style>
  </defs>
  <!-- Generator: Adobe Illustrator 28.6.0, SVG Export Plug-In . SVG Version: 1.2.0 Build 709)  -->
  <g>
    <g id="Ebene_1">
      <path class="cls-1" d="M20.92,4.41c-9.29,0-16.85,7.56-16.85,16.85s7.56,16.85,16.85,16.85,16.85-7.56,16.85-16.85S30.21,4.41,20.92,4.41ZM20.92,40.17c-10.42,0-18.91-8.48-18.91-18.91S10.49,2.35,20.92,2.35s18.91,8.48,18.91,18.91-8.48,18.91-18.91,18.91Z"/>
      <path class="cls-1" d="M19.48,11.77h2.76v2.93h-2.76v-2.93ZM19.33,20.05c0-.38-.2-.55-.55-.55h-1v-2.71h3.03c1.18,0,1.68.53,1.68,1.71v7.85c0,.35.2.55.55.55h1v2.68h-3.03c-1.18,0-1.68-.5-1.68-1.71v-7.82Z"/>
    </g>
  </g>
</svg>