<?xml version="1.0" encoding="UTF-8"?>
<svg xmlns="http://www.w3.org/2000/svg" version="1.1" viewBox="0 0 42.52 42.52">
  <defs>
    <style>
      .cls-1 {
        fill: #422d17;
      }
    </style>
  </defs>
  <!-- Generator: Adobe Illustrator 28.6.0, SVG Export Plug-In . SVG Version: 1.2.0 Build 709)  -->
  <g>
    <g id="Ebene_1">
      <path class="cls-1" d="M32.26,36.64v-15.01h2.7v15.01h-2.7ZM32.2,16.22c-.11-.34-.29-.64-.56-.91l-9.81-8.36h0c-.34-.28-.81-.28-1.15,0l-9.77,8.4c-.28.24-.48.56-.57.9h-2.72c.14-1.15.69-2.18,1.58-2.92l9.78-8.4c.59-.55,1.4-.86,2.28-.86s1.7.31,2.33.86l9.77,8.36c.87.73,1.43,1.78,1.58,2.92h-2.73ZM38.15,18.1v1.7c0,.31-.26.5-.5.5h-5.39v-2.7h5.39c.26,0,.5.24.5.5ZM10.26,17.6v2.7h-5.39c-.31,0-.5-.26-.5-.5v-1.7c0-.31.26-.5.5-.5h5.39ZM10.26,21.63v15.01h-2.7v-15.01h2.7ZM37.65,16.26h-1.37c-.15-1.5-.88-2.93-2.05-3.93L24.46,3.88c-.9-.73-2.07-1.15-3.2-1.15s-2.3.42-3.2,1.19l-9.77,8.36c-1.17,1.01-1.91,2.44-2.05,3.97h-1.37c-1.02,0-1.84.82-1.84,1.84v1.7c0,1.02.83,1.84,1.84,1.84h1.35v15.68c0,.39.28.67.67.67h4.04c.39,0,.67-.28.67-.67v-20.47c0-.16.08-.33.19-.44l9.47-8.17,9.48,8.13c.15.12.18.3.18.44v20.51c0,.39.28.67.67.67h4.04c.39,0,.67-.28.67-.67v-15.68h1.35c1.01,0,1.84-.83,1.84-1.84v-1.7c0-1.03-.81-1.84-1.84-1.84Z"/>
    </g>
  </g>
</svg>