<svg xmlns="http://www.w3.org/2000/svg" xmlns:xlink="http://www.w3.org/1999/xlink" width="49" height="49" viewBox="0 0 49 49"><defs><clipPath id="b"><rect width="49" height="49"/></clipPath></defs><g id="a" clip-path="url(#b)"><g transform="translate(-383.552 -4)"><circle cx="24.5" cy="24.5" r="24.5" transform="translate(383.552 4)" fill="rgba(255,255,255,0.8)"/><path d="M652.036,70.583h-.886a3.876,3.876,0,0,0-1.328-2.547l-6.33-5.467a3.348,3.348,0,0,0-2.069-.744,3.192,3.192,0,0,0-2.072.773l-6.326,5.411a3.89,3.89,0,0,0-1.328,2.573h-.886a1.192,1.192,0,0,0-1.192,1.191v1.1a1.193,1.193,0,0,0,1.192,1.192h.874V84.216a.419.419,0,0,0,.433.434h2.615a.419.419,0,0,0,.433-.434V70.964a.439.439,0,0,1,.123-.288l6.135-5.289,6.14,5.267a.353.353,0,0,1,.118.284V84.216a.42.42,0,0,0,.434.434h2.614a.42.42,0,0,0,.434-.434V74.063h.874a1.193,1.193,0,0,0,1.192-1.192v-1.1A1.179,1.179,0,0,0,652.036,70.583ZM634.3,74.063v9.72H632.55v-9.72Zm0-2.614V73.2H630.81a.325.325,0,0,1-.324-.325v-1.1a.325.325,0,0,1,.324-.325Zm18.063.325v1.1a.325.325,0,0,1-.324.325h-3.488V71.449h3.488A.342.342,0,0,1,652.361,71.774Zm-3.852-1.217a1.405,1.405,0,0,0-.36-.587L641.8,64.558h0a.571.571,0,0,0-.745,0L634.723,70a1.2,1.2,0,0,0-.37.586h-1.761a2.91,2.91,0,0,1,1.021-1.894l6.332-5.442a2.142,2.142,0,0,1,1.477-.555,2.277,2.277,0,0,1,1.51.56l6.327,5.413a2.95,2.95,0,0,1,1.02,1.892Zm.04,13.227v-9.72H650.3v9.72Z" transform="translate(-233.313 -45.292)" fill="#a1100d"/></g></g></svg>