<svg xmlns="http://www.w3.org/2000/svg" xmlns:xlink="http://www.w3.org/1999/xlink" width="49" height="49" viewBox="0 0 49 49"><defs><clipPath id="b"><rect width="49" height="49"/></clipPath></defs><g id="a" clip-path="url(#b)"><g transform="translate(6.734 6.197)"><g transform="translate(0 0)"><path d="M1516.97,657.452c0-.01,0-.02,0-.031,0-3.949-9.056-6.079-17.578-6.079-8.483,0-17.489,2.112-17.57,6.028,0,.005,0,.01,0,.016v.016c0,.007,0,.013,0,.019l0,.012a13.67,13.67,0,0,0,3.5,9.164,13.131,13.131,0,0,0,1.879,1.66l-2.934,5.625a1.91,1.91,0,0,0-.213.867,1.874,1.874,0,0,0,1.878,1.876,1.868,1.868,0,0,0,1.66-1.008l2.887-5.528a22.244,22.244,0,0,0,7.04,1.456v5.44a1.877,1.877,0,1,0,3.754,0v-5.433a22.775,22.775,0,0,0,6.81-1.369c.074-.028.146-.064.219-.093l2.9,5.551a1.883,1.883,0,0,0,1.671,1.012,1.915,1.915,0,0,0,.858-.215,1.884,1.884,0,0,0,.8-2.533l-2.938-5.624A13.428,13.428,0,0,0,1516.97,657.452ZM1499.4,652.68c9.563,0,16.229,2.495,16.239,4.736,0,.013-.006.024-.005.037v0c-.069,2.233-6.713,4.706-16.234,4.706-9.57,0-16.24-2.5-16.24-4.742S1489.827,652.68,1499.4,652.68ZM1486.4,675a.534.534,0,0,1-.718.23.55.55,0,0,1-.294-.476.561.561,0,0,1,.063-.254l2.866-5.494c.307.184.61.37.936.534Zm13.532,1.986a.539.539,0,0,1-1.079,0v-7.85a.539.539,0,0,1,1.079,0Zm13.4-2.464a.543.543,0,0,1-.23.729.534.534,0,0,1-.721-.23l-2.864-5.484c.28-.141.561-.283.832-.441a.6.6,0,0,0,.07-.047l.038-.026Zm-3.658-6.586a.587.587,0,0,0-.066.044,13.9,13.9,0,0,1-2,.951,21.383,21.383,0,0,1-6.34,1.282v-1.077a1.877,1.877,0,1,0-3.754,0v1.069c-4.946-.3-8.72-1.8-11.2-4.5a12.105,12.105,0,0,1-2.861-5.609c2.988,2.224,9.606,3.4,15.937,3.4s12.975-1.182,15.955-3.414A11.784,11.784,0,0,1,1509.68,667.937Z" transform="translate(-1481.818 -642.498)" fill="#342211"/><path d="M1486.447,659.235a.669.669,0,0,1-.473-1.142l3.019-3.02a.669.669,0,0,1,.946.947l-3.02,3.019A.663.663,0,0,1,1486.447,659.235Z" transform="translate(-1482.155 -642.799)" fill="#342211"/><path d="M1489.086,660.388a.669.669,0,0,1-.472-1.143l4.831-4.831a.669.669,0,0,1,.946.947l-4.832,4.831A.67.67,0,0,1,1489.086,660.388Z" transform="translate(-1482.38 -642.743)" fill="#342211"/><path d="M1492.388,660.935a.669.669,0,0,1-.473-1.143l6.039-6.039a.669.669,0,0,1,.945.946l-6.038,6.04A.665.665,0,0,1,1492.388,660.935Z" transform="translate(-1482.661 -642.687)" fill="#342211"/><path d="M1495.688,661.539a.67.67,0,0,1-.473-1.143l6.644-6.643a.669.669,0,0,1,.945.946l-6.643,6.643A.667.667,0,0,1,1495.688,661.539Z" transform="translate(-1482.942 -642.687)" fill="#342211"/><path d="M1499.648,661.6a.67.67,0,0,1-.473-1.143l6.04-6.039a.669.669,0,0,1,.946.947l-6.04,6.038A.667.667,0,0,1,1499.648,661.6Z" transform="translate(-1483.279 -642.743)" fill="#342211"/><path d="M1503.609,661.652a.67.67,0,0,1-.472-1.143l5.435-5.435a.669.669,0,0,1,.945.947l-5.435,5.434A.667.667,0,0,1,1503.609,661.652Z" transform="translate(-1483.616 -642.799)" fill="#342211"/><path d="M1508.23,661.048a.669.669,0,0,1-.473-1.143l4.832-4.831a.669.669,0,0,1,.945.947l-4.832,4.831A.666.666,0,0,1,1508.23,661.048Z" transform="translate(-1484.01 -642.799)" fill="#342211"/><path d="M1512.851,660.613a.669.669,0,0,1-.473-1.143l2.416-2.416a.669.669,0,0,1,.945.947l-2.415,2.416A.67.67,0,0,1,1512.851,660.613Z" transform="translate(-1484.403 -642.968)" fill="#342211"/><path d="M1496.526,649.657a.669.669,0,0,1-.514-1.1l.241-.29a1.131,1.131,0,0,0,0-1.451,2.468,2.468,0,0,1,0-3.169l1.45-1.734a.669.669,0,1,1,1.026.858l-1.45,1.734a1.133,1.133,0,0,0,0,1.451,2.467,2.467,0,0,1,0,3.169l-.241.289A.666.666,0,0,1,1496.526,649.657Z" transform="translate(-1482.998 -641.676)" fill="#342211"/><path d="M1500.487,649.657a.669.669,0,0,1-.514-1.1l.242-.29a1.132,1.132,0,0,0,0-1.451,2.466,2.466,0,0,1,0-3.169l1.449-1.734a.669.669,0,1,1,1.026.858l-1.45,1.734a1.132,1.132,0,0,0,0,1.451,2.467,2.467,0,0,1,0,3.169l-.24.289A.666.666,0,0,1,1500.487,649.657Z" transform="translate(-1483.335 -641.676)" fill="#342211"/><path d="M1504.447,649.657a.669.669,0,0,1-.514-1.1l.242-.29a1.128,1.128,0,0,0,0-1.451,2.468,2.468,0,0,1,0-3.169l1.451-1.735a.67.67,0,0,1,1.026.86l-1.451,1.733a1.133,1.133,0,0,0,0,1.451,2.463,2.463,0,0,1,0,3.169l-.24.289A.666.666,0,0,1,1504.447,649.657Z" transform="translate(-1483.672 -641.676)" fill="#342211"/></g></g></g></svg>