<svg xmlns="http://www.w3.org/2000/svg" xmlns:xlink="http://www.w3.org/1999/xlink" width="49" height="49" viewBox="0 0 49 49"><defs><clipPath id="b"><rect width="49" height="49"/></clipPath></defs><g id="a" clip-path="url(#b)"><g transform="translate(-130.552 -510)"><circle cx="24.5" cy="24.5" r="24.5" transform="translate(130.552 510)" fill="rgba(255,255,255,0.8)"/><g transform="translate(142.697 522.682)"><path d="M256.918,844.564c3.806-.3,5.226-4.059,5.683-5.632a1.22,1.22,0,0,0,.761.2,1.638,1.638,0,0,0,1.065-.406l.1-.1a1.828,1.828,0,0,0,.356-.507l.456.608-.152,2.03a.51.51,0,1,0,1.014.1l.152-2.181c0-.1,0-.254-.1-.3l-.66-.913a1.873,1.873,0,0,0,.71-.355l.1-.1a1.654,1.654,0,0,0,.507-1.167c.1,0,.152.05.254.05a1.462,1.462,0,0,0,1.065-.456l.1-.1a1.641,1.641,0,0,0,.051-2.232l-.1-.2c4.262-.66,6.444-2.689,6.393-6.139-.051-3.958-3.4-7.1-7.1-6.444-3.7.609-4.871,4.415-5.226,6.089a1.555,1.555,0,0,0-2.081.051l-.1.1a1.715,1.715,0,0,0-.457,1.015,1.446,1.446,0,0,0-1.167.406l-.1.05a1.533,1.533,0,0,0-.456,1.269,1.517,1.517,0,0,0-1.37.355l-.1.1a1.646,1.646,0,0,0-.1,2.232c-3.856.406-5.885,2.233-6.089,5.582C250.119,841.367,253.112,844.818,256.918,844.564Zm10.808-23.29c3.146-.507,5.885,2.182,5.936,5.429.1,5.074-5.683,4.972-6.14,5.328l-.761-.812c4.719-1.471,5.48-3.653,5.48-4.821a3.237,3.237,0,0,0-3.857-3.2c-1.522.3-3.3,1.877-3.958,5.48l-1.218-1.369v-.051C263.209,827.16,263.819,821.934,267.726,821.274Zm-1.624,9.184-.812-.862c.152-.2.609-4.871,3.349-5.379a2.188,2.188,0,0,1,2.639,2.182C271.227,829.088,266.355,830.154,266.1,830.458Zm-5.227-3.2.1-.1a.489.489,0,0,1,.71,0l5.937,6.495a.618.618,0,0,1,0,.812l-.1.1a.49.49,0,0,1-.71,0l-5.937-6.495A.617.617,0,0,1,260.875,827.262Zm-1.725,1.522.1-.1a.457.457,0,0,1,.711.051l5.784,6.647a.566.566,0,0,1-.05.812l-.1.1a.49.49,0,0,1-.711-.05L259.1,829.6A.566.566,0,0,1,259.15,828.784Zm-1.979,1.725.1-.1a.456.456,0,0,1,.71.05l5.835,6.6a.567.567,0,0,1-.051.812l-.051.1a.454.454,0,0,1-.71-.051l-5.835-6.6A.616.616,0,0,1,257.172,830.509Zm2.588,5.277c-.812,3.3-2.385,4.617-3.6,4.719a2.18,2.18,0,0,1-2.436-2.384c.152-1.523,2.03-2.791,5.074-3.451Zm-8.423,1.826c.1-1.877.863-4.363,5.885-4.668l.812.913c-4.363,1.065-5.226,3.045-5.378,4.211a3.218,3.218,0,0,0,3.552,3.5c1.471-.152,3.349-1.522,4.313-4.82l1.218,1.37c-.152.659-1.218,5.175-4.922,5.429C253.671,843.8,251.133,840.86,251.336,837.612Z" transform="translate(-250.312 -820.222)" fill="#a1100d"/></g></g></g></svg>