<?xml version="1.0" encoding="UTF-8"?>
<svg xmlns="http://www.w3.org/2000/svg" version="1.1" viewBox="0 0 42.52 42.52">
  <defs>
    <style>
      .cls-1 {
        fill: #422d17;
      }
    </style>
  </defs>
  <!-- Generator: Adobe Illustrator 28.6.0, SVG Export Plug-In . SVG Version: 1.2.0 Build 709)  -->
  <g>
    <g id="Ebene_1">
      <path class="cls-1" d="M6.6,28.27c.14-2.52,1.16-5.87,7.91-6.28l1.09,1.23c-5.87,1.43-7.03,4.09-7.23,5.66-.27,2.73,2.05,4.98,4.78,4.71,1.98-.2,4.5-2.05,5.8-6.48l1.64,1.84c-.2.89-1.64,6.96-6.62,7.3-4.23.34-7.64-3.62-7.37-7.98ZM17.93,25.81c-1.09,4.44-3.21,6.21-4.84,6.35-1.84.2-3.48-1.3-3.27-3.21.2-2.05,2.73-3.75,6.82-4.64l1.3,1.5ZM14.45,18.72l.14-.14c.27-.27.68-.27.96.07l7.85,8.87c.27.34.27.82-.07,1.09l-.07.14c-.27.27-.75.27-.95-.07l-7.85-8.87c-.27-.27-.27-.82,0-1.09ZM17.11,16.4l.14-.14c.27-.27.68-.27.96.07l7.78,8.94c.27.34.27.82-.07,1.09l-.14.14c-.27.27-.75.2-.96-.07l-7.78-8.94c-.27-.34-.27-.82.07-1.09ZM19.43,14.35l.14-.14c.27-.27.68-.27.95,0l7.98,8.73c.27.27.27.82,0,1.09l-.14.14c-.27.27-.68.27-.95,0l-7.98-8.73c-.27-.34-.27-.82,0-1.09ZM26.46,18.65l-1.09-1.16c.2-.27.82-6.55,4.5-7.23,1.77-.34,3.62.96,3.55,2.93-.07,3.62-6.62,5.05-6.96,5.46ZM28.64,6.3c4.23-.68,7.91,2.93,7.98,7.3.14,6.82-7.64,6.69-8.26,7.16l-1.02-1.09c6.35-1.98,7.37-4.91,7.37-6.48.07-2.73-2.46-4.78-5.19-4.3-2.05.41-4.44,2.52-5.32,7.37l-1.64-1.84v-.07c0-.14.82-7.16,6.07-8.05ZM14.11,37.62c5.12-.41,7.03-5.46,7.64-7.57.27.2.61.27,1.02.27.55,0,1.02-.2,1.43-.55l.14-.14c.2-.2.34-.41.48-.68l.61.82-.2,2.73c0,.41.27.68.61.75.41,0,.68-.27.75-.61l.2-2.93c0-.14,0-.34-.14-.41l-.89-1.23c.34-.07.68-.27.95-.48l.14-.14c.41-.41.68-.96.68-1.57.14,0,.2.07.34.07.55,0,1.02-.2,1.43-.61l.14-.14c.82-.82.82-2.11.07-3l-.14-.27c5.73-.89,8.66-3.62,8.6-8.26-.07-5.32-4.57-9.55-9.55-8.67-4.98.82-6.55,5.94-7.03,8.19-.75-.68-2.05-.68-2.8.07l-.14.14c-.34.34-.55.82-.61,1.37-.55-.07-1.16.14-1.57.55l-.14.07c-.48.48-.68,1.09-.61,1.71-.61-.14-1.37,0-1.84.48l-.14.14c-.82.82-.89,2.18-.14,3-5.18.55-7.91,3-8.19,7.51-.27,5.12,3.75,9.76,8.87,9.42Z"/>
    </g>
  </g>
</svg>