<svg xmlns="http://www.w3.org/2000/svg" xmlns:xlink="http://www.w3.org/1999/xlink" width="49" height="49" viewBox="0 0 49 49"><defs><clipPath id="b"><rect width="49" height="49"/></clipPath></defs><g id="a" clip-path="url(#b)"><path d="M809.181,116.032q-6.694-4.127-13.381-8.269l-2.9-1.792a3.105,3.105,0,0,0-3.5.013q-8.112,5.025-16.232,10.034a1.18,1.18,0,0,0-.624,1.134q.018,4.434.01,8.867v3.033c0,.829.2,1.051,1,1.08,4.074.152,8.148.3,12.368.457l4.752.175h.005l4.758-.165c4.358-.152,8.859-.308,13.361-.468.761-.027.97-.253.97-1.052v-3.238q0-4.358.009-8.716A1.148,1.148,0,0,0,809.181,116.032Zm-17.278.5v-8.165l7.526,8.165Zm3.454,4.666c0-.892-.193-1.085-1.083-1.086h-2.364v-2.052h8.368v11.011h-4.921v-2.909Q795.356,123.676,795.356,121.194Zm11.306-4.986c-.309.028-.575.053-.843.064-1.423.061-2.815.119-4.208.155a.7.7,0,0,1-.43-.153q-3.385-3.646-6.752-7.31l-.712-.773,12.959,8.016ZM801.767,129V117.923l6.531-.312v11.081Zm-7.833-7.394v7.508h-5.517v-7.508Zm-3.5-3.548v2.047h-.681c-.607,0-1.2,0-1.8,0-.741,0-.967.233-.968.985q0,2.749,0,5.5v2.488h-4.93V118.061Zm-14.812-1.829,13-8.044-1.764,1.915q-2.771,3.007-5.534,6.02a.842.842,0,0,1-.74.319c-1.277-.065-2.555-.114-3.832-.165Zm7.27.321,7.528-8.174v8.174ZM774.036,128.7V117.611l6.519.308V129Z" transform="translate(-767.142 -94.042)" fill="#332212"/></g></svg>