<svg xmlns="http://www.w3.org/2000/svg" xmlns:xlink="http://www.w3.org/1999/xlink" width="49" height="49" viewBox="0 0 49 49"><defs><clipPath id="b"><rect width="49" height="49"/></clipPath></defs><g id="a" clip-path="url(#b)"><g transform="translate(9.988 10.256)"><path d="M1004.827,860.444l-.052-28.2a.613.613,0,0,0-.614-.612l-28.2.052a.613.613,0,0,0-.612.614l.052,28.2a.612.612,0,0,0,.614.612l28.2-.051A.614.614,0,0,0,1004.827,860.444Zm-28.2-.561-.049-26.972,26.972-.049.05,26.972Z" transform="translate(-975.351 -831.634)" fill="#342211"/><path d="M992.787,839.857a5.517,5.517,0,1,0,5.507-5.528A5.523,5.523,0,0,0,992.787,839.857Zm6.125-2.464,0-1.789a4.292,4.292,0,0,1,3.636,3.622l-1.79,0a.613.613,0,0,0,0,1.226l1.79,0a4.3,4.3,0,0,1-3.623,3.636l0-1.79a.613.613,0,0,0-1.226,0l0,1.789a4.292,4.292,0,0,1-3.635-3.622l1.79,0a.613.613,0,0,0,0-1.227l-1.79,0a4.294,4.294,0,0,1,3.622-3.636l0,1.79A.613.613,0,0,0,998.912,837.393Z" transform="translate(-976.835 -831.863)" fill="#342211"/><path d="M992.814,854.6a5.517,5.517,0,1,0,5.507-5.527A5.524,5.524,0,0,0,992.814,854.6Zm6.125-2.463,0-1.79a4.3,4.3,0,0,1,3.636,3.623l-1.79,0a.613.613,0,0,0,0,1.226l1.79,0a4.3,4.3,0,0,1-3.622,3.636l0-1.79a.613.613,0,0,0-1.226,0l0,1.789a4.292,4.292,0,0,1-3.635-3.622l1.789,0a.613.613,0,0,0,0-1.226l-1.79,0a4.294,4.294,0,0,1,3.622-3.636l0,1.79A.613.613,0,0,0,998.939,852.134Z" transform="translate(-976.838 -833.118)" fill="#342211"/><path d="M978.046,839.884a5.517,5.517,0,1,0,5.507-5.528A5.523,5.523,0,0,0,978.046,839.884Zm6.125-2.464,0-1.79a4.293,4.293,0,0,1,3.636,3.622l-1.79,0a.613.613,0,0,0,0,1.226l1.789,0a4.293,4.293,0,0,1-3.622,3.636l0-1.79a.613.613,0,0,0-1.226,0l0,1.79a4.293,4.293,0,0,1-3.636-3.622l1.789,0a.613.613,0,0,0,0-1.227l-1.79,0a4.3,4.3,0,0,1,3.623-3.636l0,1.791A.613.613,0,0,0,984.171,837.42Z" transform="translate(-975.58 -831.866)" fill="#342211"/><path d="M978.073,854.624a5.517,5.517,0,1,0,5.507-5.527A5.524,5.524,0,0,0,978.073,854.624Zm6.125-2.463,0-1.79a4.3,4.3,0,0,1,3.636,3.623l-1.79,0a.613.613,0,0,0,0,1.226l1.789,0a4.293,4.293,0,0,1-3.622,3.636l0-1.79a.613.613,0,0,0-1.226,0l0,1.789a4.293,4.293,0,0,1-3.636-3.622l1.789,0a.613.613,0,0,0,0-1.226l-1.79,0a4.3,4.3,0,0,1,3.623-3.636l0,1.789A.613.613,0,0,0,984.2,852.161Z" transform="translate(-975.583 -833.121)" fill="#342211"/></g></g></svg>