<svg xmlns="http://www.w3.org/2000/svg" xmlns:xlink="http://www.w3.org/1999/xlink" width="49" height="49" viewBox="0 0 49 49"><defs><clipPath id="b"><rect width="49" height="49"/></clipPath></defs><g id="a" clip-path="url(#b)"><g transform="translate(13.223 5.71)"><g transform="translate(0 0)"><path d="M1125.912,674.577c-.151-.322-.227-.679-.372-1q-.515-1.146-1.068-2.275a9.226,9.226,0,0,0-.525-.846c-.194-.3-.375-.619-.589-.908-.481-.65-.957-1.306-1.477-1.924-.561-.666-1.146-1.315-1.763-1.928-.578-.574-1.208-1.1-1.821-1.637-.3-.262-.606-.511-.913-.762a3.222,3.222,0,0,0-.3-.195c-.038.425-.068.811-.109,1.195a4.2,4.2,0,0,1-.1.637c-.116.435-.237.87-.385,1.294a15.4,15.4,0,0,1-.6,1.524,9.345,9.345,0,0,1-1.226,1.856,9.769,9.769,0,0,1-2.165,1.942,16.637,16.637,0,0,1-1.645.937,9.672,9.672,0,0,0-2.01,1.575,5.964,5.964,0,0,0-1.158,1.523,9.615,9.615,0,0,0-.681,1.332,11.646,11.646,0,0,0-.46,1.718,6.367,6.367,0,0,0-.113,1.737,7.466,7.466,0,0,0,.3,1.809,3.758,3.758,0,0,0,.46,1.113c.342.466.6.988.927,1.469a4.344,4.344,0,0,0,1.317,1.267c-.116-.378-.224-.7-.314-1.029a4.194,4.194,0,0,1-.176-.805,5.237,5.237,0,0,1,.209-2.214c.147-.4.236-.833.418-1.219a5.839,5.839,0,0,1,1.517-2.015c.338-.283.705-.531,1.059-.793a14.726,14.726,0,0,0,1.335-.812,5.555,5.555,0,0,0,1.6-2.047,5.068,5.068,0,0,0,.418-1.821c0-.345-.008-.69,0-1.035a.648.648,0,0,1,.308-.548.831.831,0,0,1,.933,0,9.57,9.57,0,0,1,2.444,1.821c.484.5.99.983,1.457,1.5l1.761,2.522c.286.521.5,1.08.755,1.62a8.123,8.123,0,0,1,.673,2.665,11.136,11.136,0,0,1-.056,1.786,5.968,5.968,0,0,1-.543,2.033l-.029.385a13.969,13.969,0,0,0,.982-1.051,10.19,10.19,0,0,0,1.436-2.357c.134-.334.3-.656.423-1a7.279,7.279,0,0,0,.262-.953,9.2,9.2,0,0,0,.244-1.417,10.535,10.535,0,0,0-.151-2.784A8.52,8.52,0,0,0,1125.912,674.577Z" transform="translate(-1104.858 -660.992)" fill="none"/><path d="M1122.606,682.433c-.18-.443-.221-.941-.378-1.4a10.9,10.9,0,0,0-1.653-3.074,16.76,16.76,0,0,0-1.942-2.229c-.345-.318-.707-.617-1.052-.934-.151-.139-.185-.059-.209.083-.032.182-.064.364-.092.546a4.518,4.518,0,0,1-.574,1.586,11.847,11.847,0,0,1-.71,1.122,4.525,4.525,0,0,1-.885.972c-.639.465-1.345.835-2.005,1.271a5.385,5.385,0,0,0-1.862,2.219,5.722,5.722,0,0,0-.283.873,4.063,4.063,0,0,0-.071,1.912,2.542,2.542,0,0,0,.135.508,4.986,4.986,0,0,0,.364.769,5.888,5.888,0,0,0,.745,1.045,7.993,7.993,0,0,0,1.142.9,7.911,7.911,0,0,0,2.357.959,3.461,3.461,0,0,0,.9.1,3.887,3.887,0,0,0,1.634-.207c.361-.15.76-.215,1.115-.376a5.576,5.576,0,0,0,2.4-2.119,6.588,6.588,0,0,0,.789-1.691,8.848,8.848,0,0,0,.243-1.083,3.736,3.736,0,0,0,.005-.607A3.778,3.778,0,0,0,1122.606,682.433Z" transform="translate(-1105.232 -661.982)" fill="none"/><path d="M1122.606,682.433c-.18-.443-.221-.941-.378-1.4a10.9,10.9,0,0,0-1.653-3.074,16.76,16.76,0,0,0-1.942-2.229c-.345-.318-.707-.617-1.052-.934-.151-.139-.185-.059-.209.083-.032.182-.064.364-.092.546a4.518,4.518,0,0,1-.574,1.586,11.847,11.847,0,0,1-.71,1.122,4.525,4.525,0,0,1-.885.972c-.639.465-1.345.835-2.005,1.271a5.385,5.385,0,0,0-1.862,2.219,5.722,5.722,0,0,0-.283.873,4.063,4.063,0,0,0-.071,1.912,2.542,2.542,0,0,0,.135.508,4.986,4.986,0,0,0,.364.769,5.888,5.888,0,0,0,.745,1.045,7.993,7.993,0,0,0,1.142.9,7.911,7.911,0,0,0,2.357.959,3.461,3.461,0,0,0,.9.1,3.887,3.887,0,0,0,1.634-.207c.361-.15.76-.215,1.115-.376a5.576,5.576,0,0,0,2.4-2.119,6.588,6.588,0,0,0,.789-1.691,8.848,8.848,0,0,0,.243-1.083,3.736,3.736,0,0,0,.005-.607A3.778,3.778,0,0,0,1122.606,682.433Z" transform="translate(-1105.232 -661.982)" fill="none"/><path d="M1125.912,674.577c-.151-.322-.227-.679-.372-1q-.515-1.146-1.068-2.275a9.226,9.226,0,0,0-.525-.846c-.194-.3-.375-.619-.589-.908-.481-.65-.957-1.306-1.477-1.924-.561-.666-1.146-1.315-1.763-1.928-.578-.574-1.208-1.1-1.821-1.637-.3-.262-.606-.511-.913-.762a3.222,3.222,0,0,0-.3-.195c-.038.425-.068.811-.109,1.195a4.2,4.2,0,0,1-.1.637c-.116.435-.237.87-.385,1.294a15.4,15.4,0,0,1-.6,1.524,9.345,9.345,0,0,1-1.226,1.856,9.769,9.769,0,0,1-2.165,1.942,16.637,16.637,0,0,1-1.645.937,9.672,9.672,0,0,0-2.01,1.575,5.964,5.964,0,0,0-1.158,1.523,9.615,9.615,0,0,0-.681,1.332,11.646,11.646,0,0,0-.46,1.718,6.367,6.367,0,0,0-.113,1.737,7.466,7.466,0,0,0,.3,1.809,3.758,3.758,0,0,0,.46,1.113c.342.466.6.988.927,1.469a4.344,4.344,0,0,0,1.317,1.267c-.116-.378-.224-.7-.314-1.029a4.194,4.194,0,0,1-.176-.805,5.237,5.237,0,0,1,.209-2.214c.147-.4.236-.833.418-1.219a5.839,5.839,0,0,1,1.517-2.015c.338-.283.705-.531,1.059-.793a14.726,14.726,0,0,0,1.335-.812,5.555,5.555,0,0,0,1.6-2.047,5.068,5.068,0,0,0,.418-1.821c0-.345-.008-.69,0-1.035a.648.648,0,0,1,.308-.548.831.831,0,0,1,.933,0,9.57,9.57,0,0,1,2.444,1.821c.484.5.99.983,1.457,1.5l1.761,2.522c.286.521.5,1.08.755,1.62a8.123,8.123,0,0,1,.673,2.665,11.136,11.136,0,0,1-.056,1.786,5.968,5.968,0,0,1-.543,2.033l-.029.385a13.969,13.969,0,0,0,.982-1.051,10.19,10.19,0,0,0,1.436-2.357c.134-.334.3-.656.423-1a7.279,7.279,0,0,0,.262-.953,9.2,9.2,0,0,0,.244-1.417,10.535,10.535,0,0,0-.151-2.784A8.52,8.52,0,0,0,1125.912,674.577Z" transform="translate(-1104.858 -660.992)" fill="none"/><path d="M1127.917,677.1a4.086,4.086,0,0,0-.219-1.366,8.136,8.136,0,0,1-.195-.861,17.228,17.228,0,0,0-.492-1.665,15.407,15.407,0,0,0-1.283-2.744c-.236-.373-.434-.771-.679-1.138-.444-.667-.883-1.339-1.374-1.972-.537-.69-1.11-1.356-1.705-2-.621-.67-1.266-1.321-1.942-1.935-.652-.592-1.341-1.147-2.045-1.678a10.987,10.987,0,0,0-1.338-.808.95.95,0,0,0-.819-.084.747.747,0,0,0-.467.805,10.39,10.39,0,0,1-.252,3.326,7.077,7.077,0,0,1-.628,1.694c-.245.4-.451.833-.709,1.228a7.141,7.141,0,0,1-1.6,1.677,16.243,16.243,0,0,1-1.421.922c-.487.306-.984.595-1.466.909a7.326,7.326,0,0,0-1.018.742,16.326,16.326,0,0,0-1.377,1.438,7.584,7.584,0,0,0-.824,1.237,10.6,10.6,0,0,0-1.052,2.692c-.119.51-.182,1.033-.251,1.552a4.808,4.808,0,0,0,0,.629l-.039,0c.045.542.08,1.084.137,1.625a3.118,3.118,0,0,0,.141.579c.072.234.181.458.24.7a9.046,9.046,0,0,0,.907,2.031,8.312,8.312,0,0,0,1.536,1.878,13.749,13.749,0,0,0,1.6,1.274,6.989,6.989,0,0,0,.9.593,10.1,10.1,0,0,0,1.488.7,23.652,23.652,0,0,0,2.566.721,10.855,10.855,0,0,0,1.881.184,13.708,13.708,0,0,0,1.472-.074,5.641,5.641,0,0,0,.906-.1c.628-.152,1.253-.319,1.868-.517a8.1,8.1,0,0,0,2.459-1.277,9.848,9.848,0,0,0,1.977-1.77,18.778,18.778,0,0,0,1.422-1.881,9.459,9.459,0,0,0,.944-1.936c.209-.676.464-1.339.639-2.024a6.592,6.592,0,0,0,.18-1.431C1127.991,678.352,1127.943,677.727,1127.917,677.1Zm-5.719,5.906a8.893,8.893,0,0,1-.243,1.083,6.592,6.592,0,0,1-.789,1.691,5.577,5.577,0,0,1-2.4,2.119c-.356.161-.754.226-1.115.376a3.887,3.887,0,0,1-1.634.207,3.466,3.466,0,0,1-.9-.1,7.915,7.915,0,0,1-2.357-.959,8,8,0,0,1-1.142-.9,5.889,5.889,0,0,1-.745-1.045,4.975,4.975,0,0,1-.364-.769,2.533,2.533,0,0,1-.135-.508,4.064,4.064,0,0,1,.07-1.912,5.737,5.737,0,0,1,.283-.873,5.386,5.386,0,0,1,1.862-2.219c.661-.435,1.367-.806,2.005-1.271a4.527,4.527,0,0,0,.886-.972,11.873,11.873,0,0,0,.71-1.123,4.515,4.515,0,0,0,.573-1.586c.028-.182.06-.364.093-.546.025-.142.059-.222.209-.083.345.317.707.617,1.052.934a16.748,16.748,0,0,1,1.942,2.229,10.892,10.892,0,0,1,1.653,3.074c.156.456.2.954.378,1.4a3.775,3.775,0,0,1,.116,1.155A3.736,3.736,0,0,1,1122.2,683.008Zm4.217-3.961a9.18,9.18,0,0,1-.244,1.417,7.3,7.3,0,0,1-.263.953c-.121.339-.288.661-.423,1a10.186,10.186,0,0,1-1.436,2.357,13.969,13.969,0,0,1-.982,1.051l.029-.385a5.97,5.97,0,0,0,.543-2.033,11.137,11.137,0,0,0,.056-1.786,8.12,8.12,0,0,0-.673-2.665c-.251-.54-.468-1.1-.755-1.62l-1.761-2.522c-.468-.515-.974-1-1.457-1.5a9.568,9.568,0,0,0-2.444-1.821.831.831,0,0,0-.933,0,.647.647,0,0,0-.308.548c-.005.345,0,.69,0,1.035a5.068,5.068,0,0,1-.418,1.821,5.557,5.557,0,0,1-1.6,2.048l-2.394,1.6a5.838,5.838,0,0,0-1.517,2.015c-.182.386-.271.815-.418,1.219a5.235,5.235,0,0,0-.208,2.214,4.2,4.2,0,0,0,.176.805c.09.328.2.651.314,1.029a4.345,4.345,0,0,1-1.317-1.267c-.323-.481-.586-1-.928-1.469a3.758,3.758,0,0,1-.46-1.113,7.465,7.465,0,0,1-.3-1.809,6.368,6.368,0,0,1,.114-1.737,11.615,11.615,0,0,1,.46-1.718,9.592,9.592,0,0,1,.681-1.332,5.965,5.965,0,0,1,1.158-1.523,9.683,9.683,0,0,1,2.01-1.575,16.6,16.6,0,0,0,1.645-.937,9.763,9.763,0,0,0,2.165-1.942,9.344,9.344,0,0,0,1.226-1.856,15.387,15.387,0,0,0,.6-1.524c.148-.424.269-.859.385-1.294a4.213,4.213,0,0,0,.1-.637c.041-.384.071-.769.109-1.195a3.21,3.21,0,0,1,.3.195c.307.251.616.5.913.762.613.54,1.243,1.062,1.822,1.637.617.614,1.2,1.263,1.763,1.929.52.619,1,1.274,1.477,1.924.214.289.4.6.589.908a9.243,9.243,0,0,1,.525.846c.37.752.724,1.511,1.068,2.275.145.326.221.683.372,1a8.505,8.505,0,0,1,.5,1.883A10.529,10.529,0,0,1,1126.415,679.048Z" transform="translate(-1104.713 -660.796)" fill="#342211"/></g><g transform="translate(0.89 28.587)"><path d="M1126.286,698.617c-.408-.1-.817-.187-1.222-.293-.382-.1-.76-.224-1.142-.329a1.252,1.252,0,0,0-.473-.085,7.625,7.625,0,0,0-.808.212c-.405.106-.812.207-1.216.315-.19.05-.375.113-.562.17l.027.075c.1.034.208.07.315.1.42.117.841.232,1.261.346l.4.11,1.226.331q.6.161,1.191.318c.285.075.568.162.857.213a.761.761,0,0,0,.794-.625A.793.793,0,0,0,1126.286,698.617Z" transform="translate(-1106.978 -692.542)" fill="none"/><path d="M1109.177,695.522a7.358,7.358,0,0,1,.856.218,2.164,2.164,0,0,0,1.492.04c.426-.133.863-.234,1.294-.352.22-.06.439-.128.659-.193l0-.051c-.032-.01-.064-.022-.1-.03-.265-.064-.532-.118-.793-.195-.3-.088-.586-.21-.885-.295-.388-.108-.784-.188-1.175-.29-.424-.11-.847-.231-1.272-.347-.3-.081-.6-.153-.889-.248a.785.785,0,0,0-.951.442.833.833,0,0,0,.384.927C1108.251,695.293,1108.716,695.4,1109.177,695.522Z" transform="translate(-1105.83 -692.188)" fill="none"/><path d="M1126.949,697.876a1.815,1.815,0,0,0-1.089-1.03c-.189-.064-.375-.14-.625-.233a2.066,2.066,0,0,1,.33-.151,1.911,1.911,0,0,0,1.109-.686,2.256,2.256,0,0,0,.484-1.782,2.422,2.422,0,0,0-.608-1.286,1.973,1.973,0,0,0-1.538-.642,5.809,5.809,0,0,0-1.18.188c-.429.1-.851.229-1.276.341-.263.069-.531.119-.791.2-.289.086-.569.208-.859.289-.4.111-.8.192-1.2.3-.519.136-1.034.284-1.551.425-.424.116-.848.239-1.274.343a1.372,1.372,0,0,1-.581.072c-.5-.109-.988-.274-1.484-.406-.4-.105-.8-.188-1.2-.292-.518-.136-1.034-.283-1.55-.428-.434-.122-.865-.253-1.3-.373-.39-.107-.78-.207-1.172-.307a8.239,8.239,0,0,1-.853-.214,2.225,2.225,0,0,0-1.767.059,2.19,2.19,0,0,0-1.282,1.981,2.525,2.525,0,0,0,.073.615,2.063,2.063,0,0,0,1.21,1.5,4.877,4.877,0,0,0,.629.22l-.005.064c-.051.016-.1.034-.156.046a2.112,2.112,0,0,0-1.136.619,2.2,2.2,0,0,0-.547,2.126,2.468,2.468,0,0,0,.618,1.108,2.17,2.17,0,0,0,1.626.612,3.9,3.9,0,0,0,.971-.192c.385-.1.765-.21,1.146-.32.433-.125.864-.257,1.3-.379.375-.105.752-.2,1.129-.3.4-.1.8-.191,1.2-.292.434-.111.865-.227,1.3-.343a8.146,8.146,0,0,0,.826-.235,1.64,1.64,0,0,1,1.146,0c.39.124.791.22,1.188.327s.821.223,1.232.332c.27.071.542.137.813.206.3.076.6.144.9.23.264.077.519.183.783.261.176.051.362.068.542.113.7.176,1.409.348,2.109.54a2.141,2.141,0,0,0,1.5-.263,1.885,1.885,0,0,0,.728-.7,2.107,2.107,0,0,0,.381-1.287A2.6,2.6,0,0,0,1126.949,697.876Zm-19.681-3.8a.784.784,0,0,1,.95-.442c.293.1.593.167.889.248.425.116.847.237,1.272.347.391.1.787.182,1.175.29.3.084.586.207.885.295.261.077.529.131.793.195.033.008.065.02.1.03l0,.051c-.219.065-.438.133-.659.193-.431.118-.867.22-1.293.352a2.164,2.164,0,0,1-1.492-.04,7.358,7.358,0,0,0-.856-.218c-.461-.12-.926-.229-1.38-.374A.832.832,0,0,1,1107.269,694.076Zm11.225,2.755c-.275.082-.556.139-.833.211-.305.08-.609.167-.915.246-.277.072-.556.137-.835.207-.384.1-.77.194-1.153.293-.311.081-.621.167-.932.249-.39.1-.782.2-1.172.3-.149.039-.294.094-.442.135-.528.144-1.057.282-1.583.428-.5.139-1,.29-1.5.429-.346.1-.693.19-1.043.265a.685.685,0,0,1-.673-.244.711.711,0,0,1-.13-.725.785.785,0,0,1,.673-.518c.528-.125,1.048-.285,1.573-.422s1.04-.252,1.559-.387c.39-.1.773-.227,1.163-.332s.756-.187,1.133-.288c.294-.08.583-.173.875-.256s.578-.164.869-.24c.39-.1.782-.2,1.172-.3.3-.078.594-.164.891-.243.4-.106.8-.212,1.193-.316.307-.079.615-.149.92-.231.275-.072.549-.155.824-.231l2.468-.688c.392-.1.786-.194,1.177-.3.3-.079.606-.169.909-.249a1.542,1.542,0,0,1,.244-.025.7.7,0,0,1,.721.612.757.757,0,0,1-.526.806c-.581.154-1.162.3-1.743.454l-2.069.543c-.575.15-1.153.29-1.724.452C1119.219,696.577,1118.861,696.721,1118.494,696.831Zm6.359,2.769c-.289-.051-.573-.138-.857-.213-.4-.1-.794-.211-1.191-.318l-1.226-.331-.4-.11c-.421-.114-.842-.229-1.262-.346-.106-.029-.21-.066-.315-.1l-.027-.075c.187-.057.372-.12.562-.17.4-.108.811-.209,1.216-.315a7.624,7.624,0,0,1,.808-.212,1.253,1.253,0,0,1,.473.085c.381.105.759.228,1.142.329.405.106.814.2,1.222.293a.793.793,0,0,1,.654.858A.761.761,0,0,1,1124.854,699.6Z" transform="translate(-1105.686 -692.043)" fill="#332212"/></g><path d="M1121.493,682.483a.868.868,0,0,0-.7,1.1,3.006,3.006,0,0,1-.041,1.545,4.148,4.148,0,0,1-.887,1.585.717.717,0,0,0-.133.785.732.732,0,0,0,1.262.207,5.024,5.024,0,0,0,.961-1.376,6.282,6.282,0,0,0,.476-2.233c-.044-.262-.1-.68-.19-1.089A.792.792,0,0,0,1121.493,682.483Z" transform="translate(-1105.987 -662.642)" fill="#342211"/></g></g></svg>