<svg xmlns="http://www.w3.org/2000/svg" xmlns:xlink="http://www.w3.org/1999/xlink" width="49" height="49" viewBox="0 0 49 49"><defs><clipPath id="b"><rect width="49" height="49"/></clipPath></defs><g id="a" clip-path="url(#b)"><path d="M648.678,406.323h-5.125l-2-8.685H630.879l-2,8.685h-5.125l2-8.685H622.51a2.715,2.715,0,1,1,0-5.378h4.481l1.332-5.789h-1.244a2.715,2.715,0,1,1,0-5.378h18.276a2.719,2.719,0,1,1,0,5.378H644.11l1.333,5.789h4.48a2.719,2.719,0,1,1,0,5.378H646.68Zm-3.808-1.655H646.6l-2-8.685h5.323c1.015,0,1.468-.52,1.468-1.034s-.454-1.034-1.468-1.034h-5.8l-2.094-9.1h3.325a1.7,1.7,0,0,0,1.164-.365.9.9,0,0,0,.3-.669c0-.514-.454-1.034-1.467-1.034H627.078c-.991,0-1.435.52-1.435,1.034s.444,1.034,1.435,1.034H630.4l-2.094,9.1h-5.8c-.991,0-1.435.52-1.435,1.034s.444,1.034,1.435,1.034h5.324l-2,8.685h1.727l2-8.685h13.31ZM642.4,393.916H630.037l2.094-9.1H640.3Zm-10.28-1.655h8.2l-1.332-5.789h-5.536Z" transform="translate(-611.686 -369.298)" fill="#332212"/></g></svg>