<?xml version="1.0" encoding="UTF-8"?>
<svg xmlns="http://www.w3.org/2000/svg" version="1.1" viewBox="0 0 42.52 42.52">
  <defs>
    <style>
      .cls-1 {
        fill: #422d17;
      }
    </style>
  </defs>
  <!-- Generator: Adobe Illustrator 28.6.0, SVG Export Plug-In . SVG Version: 1.2.0 Build 709)  -->
  <g>
    <g id="Ebene_1">
      <g>
        <path class="cls-1" d="M38.18,23.3c-.25-.65-.58-1.26-.9-1.85l-.16-.29c-.55-1.04-1.09-2.16-1.32-3.38-.48-2.62-1.71-4.73-3.65-6.26-.41-.33-.49-.49-.41-.92.28-1.6-.1-3.12-.57-4.53-.07-.23-.21-.54-.54-.67-.32-.13-.64.02-.84.14-1.54.88-2.69,1.94-3.55,3.29-.01,0-.02,0-.04-.01-1.9-.6-3.86-.8-5.81-.59-2.94.32-5.58,1.52-7.85,3.57-.2.18-.41.53-.38.86.05.6.63.66.89.69.16.02.32.04.48.06-1.58.91-2.98,2.04-4.16,3.37-1.33,1.5-2.21,3.07-2.71,4.86-.07.23-.21.7.24,1.04.48.37.93.07,1.18-.09.04-.03.08-.05.12-.06.27-.13.52-.23.77-.3v.03c-1.17,2.35-1.83,4.81-2.32,6.9-.09.38-.06.68.09.91.12.18.3.29.53.33.34.05.79-.05.99-.89.65-2.76,1.37-5.43,2.9-7.77.17-.25.2-.55.08-.8-.11-.25-.35-.42-.64-.47-.28-.04-.57-.05-.84-.01-.32.04-.64.09-.97.15.03-.07.07-.14.1-.22,1.09-2.13,2.79-3.89,5.21-5.38.34-.21.69-.39,1.04-.57.27-.14.54-.28.8-.43.19-.11.52-.39.52-.75,0-.32-.25-.64-.49-.78-.27-.16-.58-.3-.99-.44-.03-.01-.07-.02-.1-.03,2.03-1.42,4.23-2.15,6.7-2.21,1.63-.05,3.2.22,4.66.77.25.09.72.17,1.09-.37l.14-.21c.27-.4.55-.82.86-1.19.42-.5.93-.96,1.54-1.37.01.06.03.11.04.16.3,1.34.43,2.46.05,3.59-.08.24-.13.7.41,1.06,1.96,1.29,3.19,3.07,3.67,5.29.36,1.66.92,3.16,1.74,4.61.27.47.54.96.72,1.45.16.44.31.9.28,1.29-.05.74-.5,1.3-1.38,1.73-.89.43-1.66.22-2.22-.61-.19-.28-.33-.61-.49-.95l-.05-.12c-.19-.41-.5-.6-.92-.57-.89.07-1.71-.17-2.52-.76-.93-.67-1.64-1.64-2.21-3.03-.11-.26-.28-.58-.61-.68-.34-.1-.65.07-.89.23-.88.6-1.55,1.37-2.01,2.3-.77,1.58-.85,3.27-.24,5.17.75,2.32,1.7,4.76,2.9,7.47.23.51.46,1.01.69,1.52.22.47.54.57.78.57.06,0,.11,0,.15-.01.26-.05.47-.19.58-.4.12-.24.11-.53-.03-.84-1.36-2.91-2.54-5.86-3.52-8.77-.41-1.21-.44-2.32-.11-3.38.22-.71.59-1.31,1.11-1.79.06.09.12.19.18.28.32.5.64,1.02,1.02,1.5,1.01,1.27,2.28,2,3.77,2.18.44.05.59.15.76.48.84,1.69,2.33,2.37,4.08,1.87,1.05-.3,1.93-1.02,2.41-1.98.47-.95.52-2.02.13-3.01Z"/>
        <path class="cls-1" d="M30.66,18.58c.13.06.27.09.39.09.1,0,.2-.02.29-.05.14-.06.33-.18.44-.46.08-.22.15-.44.21-.64l.1-.32-.06-.33c-.03-.17-.05-.31-.09-.44-.29-.91-.93-1.47-1.84-1.62-.96-.16-1.77.18-2.35.98-.22.3-.26.66-.1.95.14.26.41.39.7.4.31,0,.57-.24.74-.43.22-.26.44-.34.75-.28.43.08.48.36.5.45.03.2-.03.48-.09.7-.15.62.14.89.4,1.02Z"/>
      </g>
    </g>
  </g>
</svg>