<svg xmlns="http://www.w3.org/2000/svg" xmlns:xlink="http://www.w3.org/1999/xlink" width="49" height="49" viewBox="0 0 49 49"><defs><clipPath id="b"><rect width="49" height="49"/></clipPath></defs><g id="a" clip-path="url(#b)"><path d="M558.928,607.541V589.3a5.9,5.9,0,0,0-5.246-5.857v-.037H534.551v.036A5.9,5.9,0,0,0,529.3,589.3v18.238h-1.574v1.3h4.443v-1.3H530.6V589.3a4.59,4.59,0,0,1,3.95-4.532v17.523H533.5v1.3h9.69v-1.3h-1.049V584.705h3.95v17.589h-1.048v1.3h9.689v-1.3h-1.049V584.771a4.59,4.59,0,0,1,3.949,4.532v18.238h-1.574v1.3H560.5v-1.3Zm-11.541-5.247v-3.95h5v3.95Zm5-5.246h-5V584.705h5Zm-11.541,0h-5V584.705h5Zm-5,5.246v-3.95h5v3.95Z" transform="translate(-517.886 -571.897)" fill="#342211"/></g></svg>