<svg xmlns="http://www.w3.org/2000/svg" xmlns:xlink="http://www.w3.org/1999/xlink" width="49" height="49" viewBox="0 0 49 49"><defs><clipPath id="b"><rect width="49" height="49"/></clipPath></defs><g id="a" clip-path="url(#b)"><g transform="translate(9.753 9.694)"><path d="M566.679,485.173l-5.13,5.129,2.355,2.356,5.13-5.129a1.542,1.542,0,0,1,1.827-.261,9.942,9.942,0,0,0,4.912,1.206l-10.037-10.036a9.819,9.819,0,0,0,1.2,4.909A1.526,1.526,0,0,1,566.679,485.173Z" transform="translate(-558.985 -465.857)" fill="none"/><path d="M583.853,484.067c2.86-4.188,2.615-9.919-.587-13.122a9.552,9.552,0,0,0-7.185-2.6,11.355,11.355,0,0,0-7.468,3.248,9.746,9.746,0,0,0-2.143,3.238l11.722,11.722A5.852,5.852,0,0,1,583.03,484,5.4,5.4,0,0,1,583.853,484.067Z" transform="translate(-558.983 -465.862)" fill="none"/><path d="M583.023,487.062a2.831,2.831,0,1,0,2.772,3.4,2.879,2.879,0,0,0,0-1.14A2.836,2.836,0,0,0,583.023,487.062Z" transform="translate(-558.976 -465.852)" fill="none"/><path d="M586.165,485.616l-.222-.162.151-.229c3.376-5.168,2.92-12.065-1.06-16.045-4.671-4.671-13.167-4.365-18.182.648a12.458,12.458,0,0,0-2.513,13.9l.083.183-4.754,4.753a2.33,2.33,0,0,0,0,3.292l2.593,2.594a2.384,2.384,0,0,0,3.292,0l4.754-4.753.183.084a12.357,12.357,0,0,0,7.027.961l.268-.042.059.265A5.321,5.321,0,0,0,588.36,489.9,5.281,5.281,0,0,0,586.165,485.616Zm-9.7,3.41a10.442,10.442,0,0,1-5.883-1.244.964.964,0,0,0-1.139.164l-5.248,5.247a.42.42,0,0,1-.292.119.414.414,0,0,1-.288-.117l-2.594-2.6a.411.411,0,0,1,0-.582l5.248-5.247a.952.952,0,0,0,.162-1.139,10.442,10.442,0,0,1-1.241-5.878l.051-.624,11.847,11.845Zm2.026-1.864-.191.315-12.505-12.5.068-.176a10.339,10.339,0,0,1,2.343-3.613,11.938,11.938,0,0,1,7.854-3.418,10.151,10.151,0,0,1,7.618,2.771c3.435,3.435,3.675,9.589.548,14.014l-.105.15-.181-.032a5.409,5.409,0,0,0-.906-.093A5.286,5.286,0,0,0,578.492,487.162Zm4.542,6.152a3.41,3.41,0,1,1,3.41-3.41A3.413,3.413,0,0,1,583.034,493.314Z" transform="translate(-558.987 -465.863)" fill="#342211"/></g></g></svg>