<svg xmlns="http://www.w3.org/2000/svg" xmlns:xlink="http://www.w3.org/1999/xlink" width="49" height="49" viewBox="0 0 49 49"><defs><clipPath id="b"><rect width="49" height="49"/></clipPath></defs><g id="a" clip-path="url(#b)"><g transform="translate(15.392 12.807)"><g transform="translate(0 0)"><path d="M1127.5,822.859l-1.4-.6h-11.2l-1.352.6a.364.364,0,0,0-.217.333v1.471h14.386v-1.464A.364.364,0,0,0,1127.5,822.859Z" transform="translate(-1111.582 -807.361)" fill="none"/><path d="M1128.225,821.516l-1.036-.447v-11.7a1.745,1.745,0,0,0-1.742-1.742h-9.832a1.744,1.744,0,0,0-1.742,1.741v11.706l-1,.441a2.116,2.116,0,0,0-1.26,1.935v7.376a.875.875,0,1,0,1.75,0v-4.153h14.387v4.153a.876.876,0,0,0,1.752,0v-7.369A2.113,2.113,0,0,0,1128.225,821.516Zm-12.6-12.138,9.812-.009v11.4h-9.812Zm12.125,15.544h-14.386V823.45a.365.365,0,0,1,.217-.333l1.352-.6h11.2l1.4.6a.364.364,0,0,1,.22.333Z" transform="translate(-1111.613 -807.627)" fill="#342211"/></g></g></g></svg>