<svg xmlns="http://www.w3.org/2000/svg" xmlns:xlink="http://www.w3.org/1999/xlink" width="49" height="49" viewBox="0 0 49 49"><defs><clipPath id="b"><rect width="49" height="49"/></clipPath></defs><g id="a" clip-path="url(#b)"><path d="M399,744.97a2.457,2.457,0,1,1-4.914,0,.712.712,0,0,1,1.424,0,1.033,1.033,0,0,0,2.066,0,.712.712,0,1,1,1.424,0Zm4.136,2.457a2.46,2.46,0,0,0,2.457-2.456.712.712,0,1,0-1.424,0,1.033,1.033,0,0,1-2.066,0,.712.712,0,1,0-1.424,0A2.461,2.461,0,0,0,403.135,747.428Zm5.628-8.81v13a8.538,8.538,0,0,1-8.925,8.924,8.668,8.668,0,0,1-2.208-.315v2.456a8.538,8.538,0,0,1-8.925,8.924,8.934,8.934,0,0,1-8.924-8.924v-13a.712.712,0,0,1,1.145-.564,14.447,14.447,0,0,0,7.778,2.682,11.134,11.134,0,0,0,2.208-.231V738.618a.712.712,0,0,1,1.146-.564,12.622,12.622,0,0,0,15.556,0,.712.712,0,0,1,1.146.564ZM396.207,751a13.787,13.787,0,0,1-15,0v11.68a7.509,7.509,0,0,0,7.5,7.5c5.181,0,7.5-3.767,7.5-7.5Zm11.132-11.065a13.782,13.782,0,0,1-15,0V751.2a15.2,15.2,0,0,0,4.146-2.079.712.712,0,0,1,1.146.564v.959a6.162,6.162,0,0,1,2.208-.422,7.3,7.3,0,0,1,5.611,2.978.712.712,0,1,1-1.138.855,5.855,5.855,0,0,0-4.474-2.409,4.959,4.959,0,0,0-2.207.543v6.564a7.413,7.413,0,0,0,2.208.37c5.181,0,7.5-3.766,7.5-7.5V739.94Zm-23.1,22.181a.712.712,0,1,0-1.139.854,6.777,6.777,0,0,0,11.222,0,.712.712,0,0,0-1.138-.857,5.357,5.357,0,0,1-8.945,0Zm6.024-3.661a.713.713,0,0,0,.713-.713,1.033,1.033,0,1,1,2.066,0,.712.712,0,1,0,1.424,0,2.457,2.457,0,0,0-4.914,0A.711.711,0,0,0,390.258,758.459Zm-6.593,0a.712.712,0,0,0,.712-.713,1.033,1.033,0,0,1,2.067,0,.712.712,0,1,0,1.424,0,2.457,2.457,0,0,0-4.915,0A.712.712,0,0,0,383.665,758.459Z" transform="translate(-369.482 -730.135)" fill="#342211"/></g></svg>