<svg xmlns="http://www.w3.org/2000/svg" xmlns:xlink="http://www.w3.org/1999/xlink" width="49" height="49" viewBox="0 0 49 49"><defs><clipPath id="b"><rect width="49" height="49"/></clipPath></defs><g id="a" clip-path="url(#b)"><g transform="translate(5.556 10.151)"><g transform="translate(5.189 0)"><path d="M1225.41,863.68h19.164l-9.582-8.213Z" transform="translate(-1221.943 -853.298)" fill="none"/><path d="M1247.39,863.7l-12.112-10.381a.934.934,0,0,0-1.218,0L1221.948,863.7a.936.936,0,0,0,.609,1.647h24.224a.936.936,0,0,0,.608-1.647Zm-22.3-.224,9.582-8.214,9.582,8.214Z" transform="translate(-1221.62 -853.096)" fill="#342211"/></g><path d="M1248.406,883.217h8.074a.936.936,0,0,0,.936-.935v-8.075a.937.937,0,0,0-.936-.936h-8.074a.937.937,0,0,0-.937.936v8.075A.937.937,0,0,0,1248.406,883.217Zm.936-8.075h6.2v6.2h-6.2Z" transform="translate(-1218.631 -854.814)" fill="#342211"/><path d="M1215.948,870.424V881.96a.936.936,0,0,0,.936.935h5.767a.936.936,0,0,0,.936-.935,5.409,5.409,0,0,1,10.817,0,.936.936,0,0,0,.936.935h5.767a.936.936,0,0,0,.936-.935V870.424a.936.936,0,0,0-.936-.936h-24.224A.937.937,0,0,0,1215.948,870.424Zm1.872.936h22.352v9.664h-3.952l-.028-.185a7.282,7.282,0,0,0-14.39,0l-.029.185h-3.952Z" transform="translate(-1215.948 -854.492)" fill="#342211"/></g></g></svg>