<svg xmlns="http://www.w3.org/2000/svg" xmlns:xlink="http://www.w3.org/1999/xlink" width="49" height="49" viewBox="0 0 49 49"><defs><clipPath id="b"><rect width="49" height="49"/></clipPath></defs><g id="a" clip-path="url(#b)"><path d="M483.962,463.342v-4.486a.731.731,0,0,0-.73-.73h-6.56v-3.756a.73.73,0,0,0-1.46,0v3.756H464.445l-.127-.214a4.057,4.057,0,0,0-7.027,0l-.128.214H446.4v-3.756a.73.73,0,0,0-1.46,0v3.756h-6.559a.731.731,0,0,0-.73.73v4.486a.731.731,0,0,0,.73.73H456.71v6.388h-3.195a.73.73,0,0,0,0,1.46h14.578a.73.73,0,0,0,0-1.46h-3.2v-6.388h18.334A.731.731,0,0,0,483.962,463.342Zm-27.252-.73h-17.6v-3.025h17.6Zm6.728,7.849H458.17V459.978a2.634,2.634,0,0,1,5.268,0Zm19.064-7.849H464.9v-3.025h17.6Z" transform="translate(-436.286 -437.128)" fill="#332212"/></g></svg>