<?xml version="1.0" encoding="UTF-8"?>
<svg xmlns="http://www.w3.org/2000/svg" version="1.1" viewBox="0 0 42.52 42.52">
  <defs>
    <style>
      .cls-1 {
        fill: #342211;
      }
    </style>
  </defs>
  <!-- Generator: Adobe Illustrator 28.6.0, SVG Export Plug-In . SVG Version: 1.2.0 Build 709)  -->
  <g>
    <g id="Ebene_1">
      <path class="cls-1" d="M20.53,5.07c.37.14.6.4.77.76.16.35.35.68.54,1.05.21-.41.41-.79.61-1.16.29-.55.83-.75,1.33-.5.49.25.65.82.37,1.37-.37.72-.75,1.43-1.1,2.15-.06.13-.06.34,0,.46,4.54,8.8,9.09,17.59,13.64,26.38.05.1.2.22.29.22.56-.03.92.23,1.16.71v.51c-.25.55-.69.71-1.28.71-10.03-.01-20.06,0-30.09,0-.02,0-.04,0-.06,0-.77,0-1.21-.35-1.21-.96,0-.57.51-1.06,1.18-.95.23.04.28-.12.36-.28,1.86-3.59,3.71-7.18,5.57-10.77,2.66-5.14,5.31-10.28,7.98-15.41.15-.29.15-.51,0-.79-.34-.61-.65-1.24-.97-1.86-.41-.78-.27-1.24.49-1.64h.45ZM34.64,35.8c-4.27-8.26-8.53-16.48-12.8-24.75-4.28,8.27-8.53,16.49-12.79,24.73h7.04c0-.58,0-1.13,0-1.68.01-1.53-.05-3.06.05-4.59.23-3.37,3.57-5.81,6.86-5.09,2.73.6,4.58,2.88,4.59,5.7.01,1.76,0,3.53,0,5.29,0,.12,0,.25,0,.38h7.05ZM25.65,35.8c.01-.06.02-.09.02-.12,0-1.9.04-3.81-.01-5.71-.06-2.42-2.28-4.16-4.58-3.67-1.85.4-3.08,1.92-3.09,3.84,0,1.77,0,3.55,0,5.32,0,.1,0,.21.01.33h7.64Z"/>
    </g>
  </g>
</svg>