<?xml version="1.0" standalone="no"?>
<!DOCTYPE svg PUBLIC "-//W3C//DTD SVG 20010904//EN"
 "http://www.w3.org/TR/2001/REC-SVG-20010904/DTD/svg10.dtd">
<svg version="1.0" xmlns="http://www.w3.org/2000/svg"
 width="1496.000000pt" height="1496.000000pt" viewBox="0 0 1496.000000 1496.000000"
 preserveAspectRatio="xMidYMid meet">
<metadata>
Created by potrace 1.11, written by Peter Selinger 2001-2013
</metadata>
<g transform="translate(0.000000,1496.000000) scale(0.100000,-0.100000)"
fill="#000000" stroke="none">
<path d="M9170 10876 c-36 -13 -92 -36 -125 -51 -33 -15 -65 -28 -72 -29 -7
-1 -16 -5 -19 -9 -4 -4 -16 -7 -26 -7 -13 0 -18 8 -18 29 l0 29 -222 -74
c-123 -41 -224 -74 -225 -74 -2 0 -4 0 -5 -1 -2 0 -10 -2 -18 -4 -8 -2 -64
-21 -125 -40 -314 -104 -760 -245 -774 -245 -6 0 -19 -4 -29 -9 -9 -6 -51 -20
-92 -31 -41 -12 -82 -24 -90 -27 -8 -3 -19 -7 -25 -8 -27 -7 -105 -28 -145
-40 -25 -8 -71 -19 -102 -25 -48 -9 -58 -15 -66 -38 -11 -30 -71 -97 -235
-264 -97 -99 -220 -230 -362 -384 -22 -24 -62 -69 -90 -101 -167 -193 -316
-336 -410 -393 -22 -13 -42 -27 -45 -30 -3 -3 -61 -34 -130 -69 -148 -76 -241
-126 -292 -158 -21 -13 -42 -23 -48 -23 -5 0 -10 -4 -10 -8 0 -5 -18 -17 -40
-27 -61 -28 -61 -62 2 -131 18 -21 21 -21 51 -6 18 8 34 18 37 22 21 25 327
177 371 184 8 1 19 5 26 9 11 7 189 64 223 72 8 2 26 8 40 13 14 5 30 11 35
12 6 1 15 4 20 6 10 3 78 20 122 29 12 3 35 10 50 16 16 6 29 10 31 9 1 0 26
6 55 14 28 9 63 17 77 20 14 3 46 11 73 19 26 8 47 13 47 11 0 -2 11 1 26 6
14 6 39 12 57 15 18 3 48 10 67 15 19 5 46 11 60 14 14 3 36 8 50 11 14 3 39
8 55 11 17 3 49 9 73 15 24 5 48 7 53 4 5 -4 9 -1 9 5 0 6 3 9 8 6 4 -2 30 0
57 5 60 11 193 26 263 28 25 1 53 26 136 126 78 93 153 172 276 286 56 51 127
119 159 149 109 105 207 195 275 255 38 33 74 65 80 70 6 6 65 56 131 110 66
55 122 102 125 105 3 4 39 33 80 66 41 32 80 64 86 69 22 19 49 40 89 70 22
17 45 35 50 41 8 9 61 52 138 114 11 8 24 20 31 25 6 6 29 25 51 44 92 78 175
155 175 163 0 11 -7 10 -80 -16z m-216 -156 c-22 -17 -57 -45 -78 -63 -21 -18
-46 -36 -55 -41 -9 -5 -18 -12 -21 -15 -3 -4 -39 -29 -80 -56 -41 -26 -98 -63
-126 -82 -28 -18 -56 -33 -62 -33 -6 0 -15 -6 -19 -12 -4 -7 -19 -19 -33 -27
-14 -8 -77 -44 -140 -81 -106 -62 -192 -109 -360 -197 -36 -19 -101 -46 -145
-60 -81 -26 -210 -78 -320 -128 -247 -113 -345 -160 -610 -290 -165 -82 -302
-147 -304 -146 -2 2 -7 -1 -10 -6 -3 -4 -35 -22 -71 -40 -36 -17 -107 -52
-158 -77 -101 -49 -103 -42 -12 40 74 66 108 89 155 104 22 7 134 59 249 116
115 57 232 111 260 120 28 9 123 53 211 97 339 170 456 227 471 227 3 0 27 15
53 33 61 45 216 137 229 137 6 0 12 4 14 8 2 5 51 34 110 66 59 32 110 62 114
67 3 5 10 7 15 4 5 -4 9 -1 9 4 0 6 4 11 10 11 5 0 26 11 47 25 21 14 45 30
53 35 8 5 39 26 69 46 44 29 181 98 306 154 19 8 183 72 215 83 45 16 51 6 14
-23z m-2571 -1571 c-15 -55 -98 -103 -273 -158 l-35 -11 24 20 c19 16 103 68
261 160 24 14 29 12 23 -11z"/>
<path d="M5947 10874 c-1 -1 -58 -5 -127 -9 -137 -8 -148 -9 -263 -19 -146
-13 -270 -26 -302 -32 -11 -2 -40 -7 -65 -9 -47 -6 -98 -12 -165 -21 -38 -5
-104 -19 -307 -65 -51 -11 -103 -23 -115 -25 -12 -2 -35 -9 -50 -15 -16 -6
-35 -12 -43 -14 -8 -2 -42 -10 -75 -19 -33 -8 -73 -17 -90 -20 -208 -32 -637
-178 -1010 -342 -22 -10 -42 -18 -45 -19 -3 -1 -34 -15 -70 -32 -36 -17 -92
-43 -125 -58 -33 -15 -107 -50 -165 -78 -58 -28 -107 -51 -110 -52 -7 -1 -82
-41 -128 -67 -20 -11 -62 -34 -92 -50 -65 -34 -253 -148 -260 -158 -3 -3 -12
-10 -20 -13 -50 -23 -500 -350 -508 -369 -2 -4 -10 -8 -17 -8 -7 0 -15 -3 -17
-8 -2 -4 -30 -29 -63 -57 -124 -103 -391 -385 -429 -454 -5 -9 -12 -18 -15
-21 -15 -12 -79 -109 -85 -128 -4 -12 -11 -22 -16 -22 -4 0 -13 -12 -19 -27
-6 -16 -26 -55 -45 -88 -19 -33 -52 -94 -73 -135 -21 -41 -41 -76 -45 -78 -5
-2 -8 -11 -8 -21 0 -9 -4 -21 -9 -27 -11 -11 -92 -204 -85 -204 2 0 -2 -15
-10 -34 -8 -18 -16 -52 -20 -75 -3 -23 -7 -45 -10 -49 -2 -4 -7 -34 -11 -67
-4 -33 -8 -71 -10 -85 -20 -156 -25 -255 -15 -290 5 -16 10 -68 11 -117 2 -48
7 -106 12 -128 5 -22 10 -48 13 -59 2 -10 11 -44 20 -75 10 -31 18 -60 19 -66
5 -20 93 -281 114 -335 32 -82 43 -100 60 -100 16 1 106 70 219 168 57 50 67
71 43 92 -3 3 -20 25 -36 50 -17 25 -36 51 -43 59 -22 23 -49 84 -65 146 -9
33 -27 103 -41 155 -25 90 -26 105 -21 280 5 228 16 341 35 365 4 6 13 36 20
69 7 32 23 79 36 104 13 25 27 59 30 76 8 51 15 68 50 129 18 31 31 57 29 57
-12 0 113 218 152 265 5 6 29 39 55 75 25 36 54 75 64 86 11 12 33 39 49 60
31 40 86 105 95 114 3 3 16 19 29 35 26 34 138 160 191 215 19 19 69 63 110
95 41 33 77 62 80 65 3 3 55 42 115 88 61 45 115 86 121 91 5 4 21 14 35 21
13 7 26 16 29 20 6 9 253 165 325 205 119 67 442 228 523 261 48 20 112 49
144 65 47 24 134 53 219 73 10 3 41 16 70 30 59 28 157 65 246 95 87 28 196
63 213 67 8 2 69 17 135 35 66 17 127 32 135 34 8 2 51 12 95 24 87 22 329 76
384 86 19 3 37 8 41 10 4 2 25 7 46 10 21 2 50 7 64 10 14 3 39 7 55 10 17 2
41 7 55 10 14 3 48 7 75 10 28 4 61 8 75 10 14 2 70 6 125 10 55 3 107 8 115
10 8 2 42 7 75 10 79 9 122 14 159 21 17 3 64 7 106 9 41 3 118 8 170 11 119
8 590 8 730 0 243 -14 269 -17 477 -55 135 -24 187 -23 191 5 2 13 -6 27 -20
36 -32 21 -126 55 -172 62 -21 4 -42 8 -46 11 -4 3 -23 7 -41 10 -19 2 -43 6
-55 9 -21 4 -107 16 -154 21 -14 2 -25 4 -25 5 0 1 -31 5 -140 14 -38 4 -90 9
-115 11 -127 13 -762 29 -773 19z"/>
<path d="M3380 9985 c0 -11 73 -191 81 -199 5 -6 9 -20 9 -33 0 -13 5 -23 10
-23 6 0 10 -6 10 -13 0 -38 169 -223 397 -433 22 -22 64 -61 92 -87 28 -27 55
-46 60 -43 12 8 14 177 1 210 -5 15 -25 42 -43 59 -228 217 -339 322 -542 511
-53 51 -75 65 -75 51z"/>
<path d="M2580 9559 c0 -18 77 -177 108 -223 24 -36 61 -73 141 -144 14 -13
82 -68 151 -123 69 -55 139 -111 155 -125 94 -76 175 -134 175 -127 0 11 -104
213 -136 265 -15 24 -33 46 -39 50 -11 7 -40 30 -120 96 -11 10 -51 41 -89 70
-37 30 -75 60 -85 67 -19 16 -98 79 -193 154 -38 29 -68 47 -68 40z"/>
<path d="M8715 9300 c-5 -7 -10 -40 -20 -110 -3 -25 -11 -74 -16 -110 -6 -36
-12 -81 -14 -100 -2 -19 -6 -48 -9 -65 -3 -16 -8 -50 -11 -75 -3 -25 -8 -56
-10 -70 -2 -14 -9 -63 -16 -110 -6 -47 -13 -94 -14 -105 -2 -11 -6 -40 -9 -65
-3 -25 -8 -54 -10 -65 -2 -11 -7 -45 -10 -76 -4 -31 -8 -65 -10 -75 -2 -11 -7
-46 -10 -79 -4 -33 -9 -67 -11 -75 -5 -18 -11 -62 -21 -145 -3 -33 -8 -68 -10
-78 -4 -25 8 -28 134 -30 l112 -2 5 30 c10 61 14 89 20 134 4 25 9 62 11 81 5
34 8 54 19 137 3 23 9 64 14 90 5 26 7 51 5 55 -2 3 0 9 5 13 6 3 8 12 5 19
-11 28 26 40 126 41 55 1 102 3 104 6 3 3 8 25 11 49 3 25 8 65 11 90 3 25 8
53 10 63 3 9 3 25 0 35 -5 15 -20 17 -107 18 -69 0 -103 4 -108 13 -4 6 -4 38
1 69 4 31 11 73 14 92 3 19 8 53 11 75 3 22 7 42 10 45 2 3 57 6 121 8 64 2
121 8 126 13 11 10 13 20 20 89 3 25 6 45 6 45 1 0 4 25 7 57 3 38 0 59 -8 64
-15 9 -478 13 -484 4z"/>
<path d="M9512 9280 c-4 -3 -17 -36 -30 -75 -38 -114 -133 -388 -142 -410 -5
-11 -20 -54 -33 -95 -32 -96 -126 -370 -134 -390 -4 -8 -7 -17 -8 -20 -1 -3
-4 -12 -8 -20 -26 -65 -129 -392 -125 -396 5 -4 83 -7 190 -5 l46 1 21 63 c12
34 24 72 26 83 3 12 12 38 20 58 l15 36 119 0 c115 0 120 -1 127 -22 9 -27 14
-82 14 -160 l1 -58 32 -1 c38 -1 112 -1 184 0 l53 1 -5 68 c-6 85 -13 179 -20
262 -2 36 -7 101 -10 145 -3 44 -8 107 -10 140 -3 33 -7 96 -10 140 -8 121
-15 225 -20 280 -2 28 -7 95 -11 150 -3 55 -8 114 -9 130 -2 17 -3 47 -4 67
l-1 37 -131 -2 c-72 -1 -134 -4 -137 -7z m74 -576 c3 -98 6 -222 7 -274 l2
-95 -60 2 c-33 2 -71 3 -84 3 -22 0 -23 3 -17 38 8 42 14 67 16 67 1 0 3 7 5
15 10 37 55 202 75 270 23 82 23 81 34 128 4 18 10 32 12 29 2 -2 7 -84 10
-183z"/>
<path d="M10188 9283 c-10 -2 -20 -14 -22 -26 -7 -33 -24 -146 -31 -202 -4
-27 -8 -61 -10 -74 -2 -13 -7 -45 -11 -70 -10 -76 -14 -105 -19 -131 -2 -14
-7 -47 -10 -75 -4 -27 -9 -63 -11 -80 -2 -16 -7 -48 -10 -70 -2 -22 -12 -85
-20 -140 -8 -55 -17 -120 -20 -145 -2 -25 -6 -56 -9 -70 -6 -34 -12 -75 -20
-135 -11 -97 -16 -130 -21 -157 -3 -14 -1 -29 4 -32 14 -8 184 -10 209 -2 27
9 34 26 49 126 9 66 11 79 18 140 4 30 9 62 11 70 2 8 6 38 10 65 3 28 8 61
10 75 3 14 7 42 10 64 2 21 7 41 9 44 11 10 246 9 247 -2 2 -16 2 -16 -6 -66
-3 -25 -8 -56 -10 -70 -1 -14 -8 -63 -15 -110 -7 -47 -14 -101 -16 -120 -2
-19 -6 -46 -9 -60 -6 -27 -16 -103 -18 -135 -2 -18 6 -21 73 -25 41 -3 97 -3
124 0 53 5 50 0 60 90 6 46 11 81 21 149 3 21 8 56 10 77 3 22 8 57 11 79 5
39 8 57 18 120 6 40 15 100 21 155 3 25 7 56 10 70 2 14 7 49 10 79 4 30 8 63
11 74 3 18 9 59 30 222 3 22 7 54 10 70 3 17 7 44 9 60 2 17 6 59 10 94 6 46
4 65 -5 71 -18 11 -217 13 -224 2 -3 -5 -7 -22 -10 -38 -7 -44 -48 -326 -50
-349 -1 -11 -6 -50 -10 -87 l-8 -66 -129 -1 -130 -2 6 48 c4 26 9 62 11 78 9
51 15 98 19 136 1 20 5 50 9 65 5 30 10 61 21 149 4 28 8 55 9 60 1 10 -193
17 -226 8z"/>
<path d="M11086 9273 c-5 -18 -10 -50 -21 -128 -17 -120 -24 -166 -29 -190 -2
-11 -7 -47 -10 -80 -4 -33 -9 -71 -11 -85 -2 -14 -7 -43 -9 -65 -3 -22 -8 -50
-10 -63 -3 -13 -8 -53 -12 -90 -3 -37 -7 -69 -9 -72 -2 -3 -7 -33 -10 -65 -4
-33 -9 -69 -11 -80 -3 -11 -7 -40 -10 -65 -2 -25 -9 -72 -14 -105 -5 -33 -12
-82 -15 -110 -4 -27 -8 -57 -10 -65 -2 -8 -7 -40 -10 -70 -4 -30 -9 -58 -12
-62 -5 -9 -1 -9 141 -9 54 0 103 4 107 8 5 5 11 31 14 58 3 28 7 59 9 70 2 11
7 45 11 75 9 75 12 98 20 148 12 78 15 97 19 127 9 77 19 125 26 125 7 0 30
-89 44 -175 3 -16 12 -64 21 -105 8 -41 17 -84 19 -95 5 -28 16 -86 21 -110 2
-11 4 -20 5 -20 3 0 12 -60 11 -77 0 -10 5 -20 10 -24 8 -5 152 -6 237 -1 10
0 12 14 9 51 -3 28 -6 52 -7 54 -3 3 -5 9 -15 67 -5 28 -9 52 -10 55 -1 3 -5
25 -9 50 -13 69 -15 81 -26 135 -12 64 -19 102 -25 145 -3 19 -8 45 -10 57 -4
16 11 38 65 92 108 110 152 216 152 369 -1 170 -18 218 -102 274 -85 58 -121
65 -337 67 -176 2 -192 0 -197 -16z m310 -217 c83 -19 113 -133 65 -242 -36
-81 -91 -124 -174 -137 -36 -6 -37 -5 -33 21 4 25 7 47 22 177 3 28 8 64 11
80 6 36 10 64 12 87 2 24 33 29 97 14z"/>
<path d="M11859 9279 c-5 -3 -12 -21 -14 -40 -3 -19 -7 -43 -9 -54 -2 -11 -7
-50 -11 -87 l-7 -68 101 0 c76 0 99 -3 96 -12 -4 -12 -12 -59 -21 -123 -2 -16
-6 -46 -9 -65 -10 -61 -17 -114 -20 -155 -2 -22 -4 -40 -5 -40 -3 0 -7 -28
-14 -83 -3 -28 -9 -69 -12 -90 -4 -20 -8 -48 -9 -62 -2 -14 -4 -25 -5 -25 -1
0 -3 -16 -5 -35 -1 -19 -6 -55 -9 -80 -4 -25 -9 -63 -11 -85 -3 -22 -7 -51
-10 -65 -3 -14 -7 -43 -10 -65 -2 -22 -7 -62 -10 -89 -4 -28 -8 -53 -11 -57
-5 -9 14 -22 36 -26 8 -1 55 -3 104 -4 100 -1 115 7 117 65 1 17 3 40 5 51 5
32 13 87 18 125 2 19 7 58 11 85 4 28 8 61 10 75 14 102 18 127 21 145 5 24
44 297 49 340 3 26 12 91 20 145 1 8 5 41 10 73 l7 57 37 1 c112 3 153 7 161
15 5 5 11 32 14 59 7 64 17 157 19 170 2 11 -617 15 -634 4z"/>
<path d="M12618 9283 c-17 -4 -23 -22 -34 -98 -3 -22 -7 -52 -10 -67 -6 -43
-12 -78 -19 -131 -4 -27 -8 -58 -10 -70 -3 -11 -7 -43 -10 -71 -7 -60 -11 -93
-19 -143 -3 -21 -8 -56 -11 -78 -3 -22 -7 -51 -10 -65 -2 -14 -7 -45 -9 -70
-3 -25 -7 -54 -9 -65 -3 -11 -8 -47 -12 -80 -4 -32 -8 -66 -10 -75 -1 -8 -6
-37 -9 -65 -4 -27 -11 -81 -17 -120 -9 -64 -16 -121 -24 -183 -1 -12 2 -25 7
-28 12 -8 421 -7 457 1 20 4 31 14 37 33 10 37 11 40 18 97 3 28 9 65 12 83 4
22 1 32 -8 33 -7 1 -57 3 -110 5 -124 4 -139 11 -128 61 5 21 11 58 14 83 11
84 25 160 31 170 3 6 53 10 110 10 57 0 106 4 109 8 3 5 7 30 10 58 3 27 9 72
12 99 4 28 7 63 8 80 l1 29 -98 1 c-68 1 -101 5 -106 14 -11 17 -4 95 15 194
3 16 7 40 9 53 1 14 5 28 9 31 4 4 62 9 129 11 67 2 123 5 124 6 2 1 4 22 19
146 2 25 7 58 10 74 4 18 2 26 -4 22 -6 -3 -13 -2 -16 3 -6 8 -424 12 -458 4z"/>
<path d="M13256 9277 c-10 -7 -20 -25 -21 -40 -2 -15 -6 -46 -10 -69 -4 -24
-8 -54 -10 -68 -2 -14 -6 -43 -10 -65 -3 -22 -8 -58 -10 -80 -3 -22 -7 -51
-10 -65 -3 -14 -7 -45 -10 -70 -3 -25 -7 -56 -10 -70 -5 -24 -9 -52 -20 -145
-3 -22 -7 -51 -10 -65 -2 -14 -7 -47 -10 -75 -3 -27 -7 -61 -10 -75 -3 -14 -7
-47 -10 -75 -3 -27 -8 -63 -11 -80 -6 -33 -11 -65 -19 -140 -4 -27 -8 -57 -10
-65 -2 -8 -7 -40 -10 -70 -4 -30 -8 -57 -10 -60 -2 -3 0 -12 4 -19 6 -9 37
-12 109 -12 55 1 107 4 116 7 17 6 25 40 41 160 3 22 7 48 9 59 2 11 7 49 11
85 4 36 8 67 10 70 2 3 6 34 10 70 3 36 11 97 16 135 5 39 12 99 15 135 2 36
7 76 10 90 6 22 8 21 20 -19 7 -24 13 -47 12 -50 0 -3 1 -8 2 -11 1 -3 3 -14
5 -24 4 -21 32 -145 42 -186 4 -14 8 -32 9 -40 1 -8 10 -46 18 -85 9 -38 32
-141 50 -228 19 -87 36 -160 39 -163 6 -7 226 -8 232 -2 5 4 11 42 20 117 4
30 8 61 10 70 1 9 6 41 9 72 4 31 9 67 12 80 2 13 7 44 9 69 5 48 10 87 18
135 3 17 8 50 11 75 3 25 8 54 10 65 2 11 7 45 10 76 4 31 8 65 10 75 3 19 8
48 31 217 4 27 8 59 11 70 2 12 6 42 9 67 3 25 10 80 16 122 6 43 9 84 6 92
-4 10 -32 14 -121 15 -130 2 -121 9 -131 -89 -5 -45 -9 -80 -19 -135 -3 -16
-7 -48 -10 -70 -3 -22 -8 -60 -12 -85 -3 -25 -8 -56 -9 -70 -2 -14 -8 -63 -15
-110 -6 -47 -14 -103 -16 -125 -2 -22 -6 -49 -8 -60 -3 -11 -5 -31 -6 -45 -1
-23 -2 -24 -10 -5 -4 12 -10 36 -13 55 -4 19 -10 53 -16 75 -5 22 -12 51 -15
65 -3 14 -7 34 -10 45 -2 11 -16 74 -31 140 -14 66 -28 129 -30 140 -4 17 -17
78 -20 95 -1 3 -4 14 -8 25 -4 11 -9 34 -11 50 -3 17 -9 46 -13 65 l-9 35
-105 3 c-76 2 -109 -1 -123 -11z"/>
<path d="M1910 8964 c6 -16 15 -31 19 -34 4 -3 28 -32 54 -66 26 -34 68 -76
93 -94 50 -36 516 -272 523 -265 8 9 -73 118 -129 175 -30 31 -84 72 -120 92
-122 67 -348 178 -364 178 -9 0 -16 4 -16 9 0 5 -8 11 -17 14 -10 2 -26 8 -36
12 -15 7 -16 4 -7 -21z"/>
<path d="M4895 8794 c-55 -12 -127 -31 -159 -43 -68 -24 -207 -97 -218 -114
-4 -7 -8 -9 -8 -5 0 23 -123 -112 -147 -161 -33 -69 -38 -185 -10 -240 9 -19
17 -35 17 -35 0 -1 -11 -2 -25 -2 -13 -1 -32 -9 -40 -18 -9 -9 -23 -16 -31
-16 -8 0 -14 -3 -14 -8 0 -4 -21 -18 -47 -32 -27 -14 -76 -42 -110 -62 -35
-21 -67 -38 -72 -38 -5 0 -11 -3 -13 -7 -1 -5 -25 -20 -53 -34 -139 -71 -182
-92 -200 -99 -108 -42 -240 -79 -309 -86 -33 -3 -99 -14 -145 -24 -47 -10 -89
-16 -93 -14 -4 3 -8 1 -8 -3 0 -5 -8 -9 -17 -10 -10 -1 -58 -11 -108 -22 -49
-11 -126 -27 -170 -37 -44 -9 -84 -17 -90 -18 -41 -9 -124 -26 -145 -30 -14
-3 -36 -7 -50 -10 -14 -3 -36 -8 -50 -11 -121 -26 -184 -29 -202 -11 -21 21
-27 20 -75 -6 -135 -76 -143 -82 -153 -119 -10 -36 -77 -108 -200 -214 -104
-90 -128 -110 -146 -125 -27 -21 -170 -141 -258 -215 -52 -43 -49 -41 -181
-160 -328 -295 -780 -747 -924 -924 -18 -22 -42 -50 -53 -63 -11 -13 -42 -54
-68 -93 -26 -38 -63 -84 -81 -101 -45 -41 -134 -104 -147 -104 -6 0 -15 -6
-19 -13 -4 -8 -21 -22 -36 -32 -51 -32 -21 -26 69 16 409 190 725 318 1024
415 128 42 268 85 289 89 9 2 17 4 19 5 1 2 7 4 12 5 6 1 12 4 15 5 3 1 8 3
13 4 4 2 27 8 52 16 25 7 50 14 55 16 6 1 71 18 145 38 74 19 152 38 173 42
21 3 93 19 160 35 67 17 134 32 149 34 15 2 31 6 35 8 5 3 28 8 53 12 24 4 51
10 60 15 8 4 29 10 45 13 17 3 46 11 65 17 19 5 49 13 65 16 17 2 38 7 48 10
9 3 47 7 84 9 87 5 105 20 166 131 71 129 70 126 97 164 38 54 187 244 227
290 12 14 61 72 109 130 47 58 98 118 113 135 14 16 57 65 94 109 37 43 73 84
80 91 7 7 40 43 74 82 34 38 74 83 90 100 15 16 60 65 98 108 89 100 181 188
270 260 116 93 171 135 179 135 4 0 29 16 56 35 27 19 52 35 55 35 2 0 23 13
46 29 41 28 44 28 93 15 113 -29 249 -33 356 -8 14 3 38 8 54 10 65 12 232 75
298 112 34 20 88 52 145 87 18 11 33 26 33 33 0 7 -3 11 -7 9 -5 -2 -24 -11
-43 -19 -19 -9 -61 -27 -93 -42 -32 -14 -59 -26 -62 -26 -2 0 -16 -5 -32 -12
-15 -6 -30 -12 -33 -13 -31 -9 -87 -25 -92 -25 -4 -1 -23 -7 -43 -15 -19 -9
-38 -15 -42 -14 -5 1 -10 0 -13 -1 -33 -12 -150 -24 -245 -24 -145 0 -200 16
-270 77 -38 33 -40 37 -42 98 -2 96 25 158 106 238 89 90 243 168 386 196 11
2 34 7 50 10 17 4 55 8 85 11 96 8 144 12 168 13 13 1 21 5 17 10 -10 18 -196
9 -300 -15z m-2799 -1581 c-70 -75 -97 -104 -176 -193 -36 -40 -78 -88 -95
-106 -16 -17 -39 -43 -50 -57 -21 -26 -101 -119 -145 -167 -14 -16 -56 -70
-95 -121 -148 -195 -210 -258 -335 -340 -73 -48 -79 -51 -163 -112 -69 -49
-173 -136 -239 -199 -10 -10 -23 -18 -28 -18 -6 0 -10 -4 -10 -10 0 -5 -6 -10
-14 -10 -8 0 -16 -4 -18 -9 -7 -19 -244 -128 -255 -117 -3 3 1 12 8 20 8 8 34
39 59 68 106 124 337 355 515 513 43 39 88 79 100 90 13 11 49 43 81 70 31 28
62 55 68 60 6 6 58 51 116 100 58 50 110 95 116 100 15 13 134 113 234 196 19
16 41 34 48 40 102 85 274 226 301 246 38 29 28 9 -23 -44z m189 36 c13 -20
-6 -59 -46 -96 -23 -21 -67 -63 -99 -93 -85 -80 -108 -99 -114 -93 -7 7 42 77
94 133 161 176 153 169 165 149z"/>
<path d="M5235 8800 c-4 -6 3 -10 14 -10 25 0 27 6 6 13 -8 4 -17 2 -20 -3z"/>
<path d="M1375 8244 c11 -8 29 -22 40 -32 65 -55 134 -93 178 -97 26 -3 65 -7
85 -10 20 -3 66 -7 102 -11 36 -3 76 -7 90 -9 14 -3 56 -7 94 -10 38 -3 73 -8
77 -11 4 -2 10 0 13 5 14 22 -207 145 -253 140 -9 -1 -19 0 -23 1 -18 6 -27 7
-113 14 -49 5 -99 10 -110 13 -11 2 -47 6 -80 9 -33 2 -73 6 -90 9 -29 4 -29
3 -10 -11z"/>
<path d="M8400 7660 c-25 -10 -66 -29 -90 -43 -206 -114 -327 -180 -367 -200
-27 -13 -57 -29 -68 -35 -23 -13 -355 -172 -360 -172 -2 0 -32 -13 -67 -29
-56 -25 -156 -68 -213 -91 -11 -5 -45 -20 -75 -33 -31 -14 -68 -29 -83 -32
-15 -4 -30 -11 -33 -16 -3 -5 -12 -9 -20 -9 -8 0 -36 -10 -62 -21 -25 -12 -51
-22 -57 -24 -5 -1 -23 -8 -40 -14 -41 -17 -255 -98 -335 -126 -253 -91 -623
-217 -640 -220 -3 0 -9 -3 -15 -6 -10 -6 -54 -18 -68 -18 -4 0 -21 -8 -37 -16
-16 -8 -32 -15 -35 -15 -7 -1 -20 -5 -123 -40 -50 -17 -102 -34 -115 -36 -57
-14 -106 -23 -157 -29 -56 -6 -86 -11 -142 -21 -18 -3 -48 -7 -65 -10 -18 -2
-54 -9 -80 -15 -27 -6 -59 -13 -73 -16 -38 -8 -55 -11 -60 -13 -3 -1 -8 -2
-13 -1 -4 1 -28 -4 -55 -10 -59 -13 -78 -17 -122 -23 -19 -3 -46 -7 -60 -10
-13 -3 -42 -8 -65 -11 -22 -3 -47 -8 -55 -10 -28 -7 -147 -24 -215 -30 -49 -4
-149 -17 -220 -29 -182 -30 -253 -37 -550 -52 -169 -8 -576 -8 -645 0 -86 10
-195 6 -250 -9 -67 -19 -68 -20 -155 -44 -307 -86 -409 -111 -465 -117 -36 -3
-82 -7 -104 -9 -49 -5 -66 -20 -35 -31 13 -4 26 -8 29 -9 3 0 10 -3 15 -7 51
-32 448 -170 555 -192 165 -35 252 -50 352 -61 113 -13 637 -7 963 10 124 7
312 24 528 50 23 3 62 7 87 9 37 4 160 24 245 41 61 11 233 47 250 51 11 3 31
7 45 10 14 3 58 14 99 25 41 12 86 23 100 25 14 3 35 8 46 11 11 4 22 8 25 8
3 1 19 5 35 9 17 5 61 17 99 28 38 11 76 21 85 23 17 4 188 53 209 60 7 2 16
5 20 6 64 14 324 119 442 179 52 27 136 65 185 85 50 21 109 46 132 56 23 10
44 19 47 19 2 0 17 5 33 12 15 6 30 12 33 13 3 1 14 5 25 10 11 4 43 17 70 27
71 28 108 44 210 93 129 62 258 118 273 118 6 0 12 4 12 9 0 4 5 8 11 8 15 0
97 57 139 97 20 18 60 49 90 68 30 19 60 38 65 42 6 5 21 14 35 20 14 7 43 24
65 37 22 14 67 41 100 61 145 87 447 291 453 307 2 4 8 8 13 8 9 0 66 36 79
50 3 3 25 21 50 40 53 41 72 61 112 118 16 23 33 42 38 42 13 0 42 58 38 75
-2 10 -12 9 -48 -5z"/>
<path d="M8786 7403 c-1 -1 -76 -3 -166 -4 -91 0 -172 -5 -181 -10 -16 -8 -27
-48 -34 -123 -2 -17 -9 -62 -15 -101 -6 -38 -13 -88 -15 -110 -3 -22 -7 -51
-10 -65 -3 -14 -7 -43 -10 -65 -6 -50 -13 -95 -19 -143 -3 -20 -8 -54 -11 -74
-3 -21 -7 -55 -10 -75 -3 -21 -8 -56 -10 -78 -3 -22 -7 -51 -10 -65 -3 -14 -7
-43 -10 -65 -7 -62 -25 -189 -29 -211 -2 -10 -7 -44 -10 -74 -4 -30 -9 -68
-12 -85 -15 -74 -23 -70 119 -73 98 -2 127 0 128 10 1 18 4 45 12 98 4 25 9
63 12 85 3 22 7 56 10 75 3 19 8 55 10 80 3 25 8 56 10 70 3 14 8 48 11 75 10
74 10 74 16 80 3 3 45 7 94 9 49 2 99 5 111 5 23 1 32 24 38 99 4 49 15 123
21 143 6 23 -6 25 -123 25 -118 -1 -111 -9 -93 99 6 33 13 83 16 110 11 83 18
95 61 96 21 0 76 1 123 2 l84 2 7 40 c10 59 22 156 23 188 l1 29 -68 1 c-38 1
-70 1 -71 0z"/>
<path d="M9342 7403 c-4 -1 -64 -3 -134 -5 -70 -2 -129 -6 -132 -9 -6 -5 -17
-60 -21 -104 -4 -40 -15 -124 -20 -155 -3 -14 -7 -47 -10 -75 -3 -27 -8 -57
-10 -65 -3 -8 -7 -42 -10 -74 -4 -33 -8 -63 -10 -66 -2 -4 -6 -33 -10 -66 -3
-33 -7 -70 -10 -84 -5 -24 -10 -63 -21 -145 -3 -22 -11 -83 -19 -135 -8 -52
-16 -115 -20 -140 -3 -25 -8 -56 -10 -70 -2 -14 -7 -43 -10 -65 -3 -22 -9 -65
-14 -95 -5 -30 -8 -56 -6 -58 9 -10 491 -19 501 -9 4 3 21 113 30 187 3 30 8
58 10 62 2 3 -54 6 -126 5 l-130 -2 5 40 c3 22 7 58 10 80 11 77 15 110 19
149 4 42 18 56 56 55 14 0 59 0 101 1 l76 1 13 89 c6 50 12 91 11 92 0 2 4 20
8 41 l9 37 -115 0 -115 0 6 38 c3 20 9 55 11 77 3 22 8 56 11 75 3 19 7 53 10
75 3 22 9 44 14 49 5 5 62 9 125 9 63 -1 117 2 120 6 9 16 39 241 32 247 -5 5
-208 11 -225 7z"/>
<path d="M9727 7400 c-7 -3 -13 -9 -13 -15 -1 -5 -4 -28 -7 -50 -4 -22 -11
-71 -16 -110 -6 -38 -13 -92 -16 -120 -4 -27 -9 -61 -11 -75 -3 -14 -7 -43 -9
-65 -2 -22 -11 -85 -19 -140 -18 -117 -27 -188 -32 -230 -1 -16 -3 -30 -4 -30
-1 0 -3 -13 -5 -30 -2 -16 -7 -48 -10 -70 -3 -22 -8 -56 -11 -75 -2 -19 -9
-69 -15 -110 -6 -41 -13 -91 -15 -110 -2 -19 -6 -46 -9 -60 -3 -14 -7 -44 -10
-68 -2 -23 -7 -47 -10 -52 -6 -10 109 -17 190 -10 33 3 61 10 62 15 3 19 13
90 18 130 9 73 14 106 19 133 3 15 8 50 11 77 7 54 14 105 21 139 2 11 7 41
10 66 3 24 10 53 14 65 8 19 9 19 11 -2 1 -13 2 -26 3 -30 1 -5 6 -30 11 -58
5 -27 9 -52 10 -55 1 -3 5 -25 9 -50 5 -25 10 -54 12 -65 7 -34 24 -119 29
-145 3 -14 7 -36 10 -50 3 -14 8 -38 11 -55 5 -28 7 -41 17 -90 3 -17 14 -21
73 -25 38 -3 98 -3 132 -2 63 4 64 4 57 30 -4 15 -9 38 -11 52 -3 14 -11 57
-19 95 -8 39 -16 81 -18 95 -5 24 -15 73 -55 274 l-18 89 45 41 c76 69 100 99
131 161 37 75 40 93 45 236 4 140 -8 197 -50 244 -18 19 -36 35 -40 35 -4 0
-19 9 -34 19 -52 37 -86 42 -419 54 -34 1 -68 0 -75 -3z m312 -248 c51 -25 72
-60 73 -118 1 -142 -86 -251 -192 -242 -39 3 -38 -1 -25 103 5 39 9 77 10 85
1 8 4 29 8 45 3 17 11 56 17 88 11 55 12 57 43 57 18 0 47 -8 66 -18z"/>
<path d="M11225 7402 c-75 -4 -93 -10 -101 -35 -5 -12 -7 -25 -6 -29 1 -4 -3
-31 -8 -60 -6 -29 -13 -76 -15 -104 -3 -28 -8 -62 -11 -75 -2 -13 -7 -44 -9
-69 -3 -25 -8 -63 -11 -85 -4 -22 -7 -51 -9 -65 -1 -14 -6 -52 -10 -85 -10
-83 -13 -114 -16 -158 -2 -20 -6 -34 -10 -30 -6 7 -58 202 -65 248 -2 11 -8
38 -13 60 -5 22 -12 51 -15 65 -3 14 -15 68 -26 120 -12 52 -23 102 -25 110
-1 8 -8 33 -13 55 -13 47 -23 95 -24 113 -1 6 -4 12 -7 13 -3 0 -59 3 -123 5
-92 4 -118 2 -119 -8 0 -7 -2 -22 -4 -33 -7 -37 -33 -231 -40 -291 -2 -21 -6
-48 -9 -60 -2 -12 -7 -45 -11 -74 -4 -29 -8 -60 -10 -69 -1 -9 -6 -41 -9 -72
-4 -31 -9 -67 -11 -80 -3 -13 -7 -42 -10 -64 -3 -22 -7 -51 -10 -64 -2 -13 -7
-47 -10 -75 -2 -28 -7 -62 -10 -76 -3 -14 -8 -43 -10 -65 -3 -22 -10 -71 -15
-110 -31 -216 -34 -257 -19 -265 7 -5 52 -9 102 -9 49 -1 93 -3 97 -6 4 -3 13
1 19 9 12 15 14 22 25 99 4 27 9 58 11 69 3 11 7 41 10 67 4 25 9 57 11 71 2
14 6 43 9 65 2 22 6 54 9 70 3 17 8 53 11 80 3 28 8 64 10 80 2 17 7 68 11
115 11 144 16 135 79 -150 7 -37 16 -77 19 -90 38 -171 48 -219 52 -240 3 -14
7 -33 10 -42 3 -10 7 -30 10 -45 3 -16 9 -44 13 -63 5 -19 12 -46 15 -60 5
-24 7 -25 98 -25 51 0 100 -3 109 -7 10 -5 21 -2 28 5 10 13 13 27 26 125 3
20 7 48 10 62 2 14 7 45 10 70 2 25 6 54 9 65 2 11 7 45 10 75 4 30 8 66 11
80 5 33 26 187 40 290 12 97 13 104 31 225 4 28 8 59 9 70 5 44 16 121 20 140
18 91 24 211 9 208 -5 -1 -26 1 -45 5 -19 4 -56 6 -84 4z"/>
<path d="M11637 7404 c-2 -2 -34 -7 -85 -14 -1 0 -7 -12 -12 -26 -10 -24 -14
-48 -26 -144 -3 -25 -7 -56 -9 -70 -13 -78 -25 -161 -29 -200 -3 -25 -8 -55
-10 -67 -3 -12 -7 -48 -11 -80 -3 -32 -8 -65 -10 -73 -2 -8 -6 -37 -10 -65 -3
-27 -10 -78 -16 -113 -5 -35 -12 -84 -14 -110 -3 -26 -7 -58 -10 -72 -3 -14
-7 -45 -10 -69 -5 -51 -13 -107 -20 -141 -3 -14 -8 -50 -11 -80 -2 -30 -7 -62
-10 -71 -3 -11 3 -18 16 -22 38 -10 442 -7 462 4 23 12 34 38 42 104 4 28 9
69 12 93 4 23 2 43 -2 43 -5 1 -46 3 -91 4 -46 2 -99 6 -119 10 l-36 6 6 59
c4 32 9 67 11 78 2 11 7 42 11 69 5 26 9 51 10 56 1 4 2 15 3 26 1 13 10 20
31 23 17 3 33 1 36 -4 3 -5 10 -5 16 -2 6 4 39 6 74 6 69 0 74 3 79 51 2 18 7
52 10 77 3 25 8 64 10 88 l5 42 -108 0 -109 0 3 48 c1 26 5 65 8 87 4 22 11
69 16 104 5 35 11 65 14 68 6 6 51 11 169 17 40 3 75 5 78 5 3 1 12 43 19 94
7 50 17 102 21 114 10 28 -6 35 -106 40 -87 4 -296 9 -298 7z"/>
<path d="M9133 5512 c-40 -2 -64 -7 -65 -15 0 -7 -2 -16 -3 -22 -5 -31 -18
-124 -20 -145 -2 -14 -5 -38 -8 -55 -3 -16 -9 -55 -12 -85 -4 -30 -9 -62 -10
-70 -1 -8 -6 -40 -10 -70 -4 -30 -9 -64 -11 -75 -2 -11 -6 -46 -9 -79 -4 -33
-8 -62 -10 -65 -1 -3 -6 -31 -9 -61 -3 -30 -8 -64 -10 -75 -3 -18 -10 -68 -21
-150 -2 -16 -18 -127 -34 -245 -17 -118 -31 -218 -31 -222 0 -7 202 -1 305 8
77 8 171 39 214 72 61 46 151 157 151 185 0 7 4 17 9 22 12 14 31 93 35 149 7
90 -40 246 -80 269 -24 14 -16 37 31 85 47 48 89 123 100 177 12 57 14 210 4
250 -6 21 -25 60 -42 85 -65 94 -111 113 -296 126 -53 3 -98 6 -101 7 -3 1
-33 1 -67 -1z m224 -264 c38 -27 56 -63 54 -115 -2 -106 -59 -188 -145 -209
l-28 -7 6 54 c4 30 8 65 10 79 2 14 7 48 11 75 3 28 9 66 11 85 5 30 26 60 43
60 3 0 20 -10 38 -22z m-73 -578 c64 -57 72 -150 20 -255 -25 -53 -57 -81
-102 -90 -10 -2 -24 -5 -32 -7 -16 -3 -18 27 -5 93 3 19 7 50 9 69 2 19 7 55
11 80 4 25 9 52 10 60 6 36 28 80 41 80 7 0 29 -14 48 -30z"/>
<path d="M10578 5512 c-65 -2 -78 -6 -79 -20 0 -9 -2 -26 -4 -37 -8 -48 -18
-122 -20 -140 -3 -30 -16 -126 -20 -144 -1 -9 -6 -38 -9 -66 -10 -74 -17 -127
-21 -155 -2 -14 -6 -45 -10 -70 -3 -25 -8 -56 -10 -70 -3 -14 -7 -45 -10 -70
-8 -68 -15 -122 -20 -150 -2 -14 -7 -45 -10 -70 -5 -39 -14 -97 -40 -275 -4
-22 -8 -58 -11 -80 -3 -22 -7 -47 -10 -57 -3 -9 1 -20 8 -24 15 -9 237 -13
239 -5 1 4 3 20 4 36 2 17 8 59 13 95 6 36 14 85 17 110 3 25 8 56 10 70 2 14
7 44 10 68 9 76 15 116 26 192 6 41 13 100 15 130 3 30 7 64 9 75 2 11 4 31 4
44 1 29 10 23 16 -10 5 -29 27 -129 109 -508 9 -40 18 -76 20 -80 2 -3 7 -23
10 -44 3 -22 13 -70 22 -108 l16 -69 46 -1 c26 -1 72 -2 102 -3 73 -3 86 5 94
57 4 24 8 55 11 68 2 13 6 44 10 69 3 25 8 59 11 75 7 45 13 85 18 135 6 50
14 106 20 135 2 11 7 45 10 76 4 31 9 67 11 80 3 13 7 42 9 64 3 22 7 54 10
70 3 17 12 84 21 150 9 66 18 131 20 145 7 47 25 175 31 225 3 28 8 53 10 56
12 20 -32 30 -131 28 -124 -2 -115 7 -135 -129 -6 -47 -14 -96 -16 -110 -2
-14 -7 -47 -9 -75 -3 -27 -8 -61 -10 -75 -19 -118 -43 -341 -45 -425 -1 -38
-16 -16 -24 36 -3 20 -8 42 -10 50 -3 8 -7 25 -10 39 -2 14 -19 86 -36 160
-17 74 -34 146 -36 160 -3 14 -10 45 -16 70 -6 25 -12 54 -14 65 -2 11 -13 61
-24 110 -12 50 -23 97 -24 105 -3 18 -62 26 -168 22z"/>
<path d="M11409 5510 c-12 -3 -23 -13 -25 -22 -1 -9 -5 -36 -8 -60 -4 -24 -9
-61 -12 -83 -3 -22 -7 -50 -9 -62 -5 -32 15 -43 87 -47 34 -2 71 -4 81 -5 17
-1 18 -7 12 -63 -4 -35 -9 -71 -11 -82 -2 -10 -6 -44 -10 -75 -3 -31 -8 -58
-9 -61 -2 -3 -6 -33 -10 -68 -4 -35 -11 -76 -15 -93 -5 -17 -5 -27 0 -24 5 3
5 -6 0 -22 -5 -15 -12 -48 -15 -73 -22 -160 -24 -179 -30 -230 -3 -25 -8 -55
-10 -67 -3 -12 -8 -51 -11 -85 -3 -35 -8 -66 -10 -69 -2 -4 -6 -36 -10 -72 -6
-63 -5 -64 20 -69 45 -9 197 -1 209 11 6 6 12 21 14 33 2 13 10 70 19 128 8
58 17 119 19 135 5 45 17 128 21 147 1 9 5 38 9 65 4 26 9 59 11 73 2 14 6 48
9 75 3 28 7 61 10 75 6 34 17 109 20 140 2 14 4 25 5 25 1 0 3 16 5 35 2 33 7
70 21 165 3 22 10 42 15 46 5 3 50 5 100 5 50 -1 93 2 95 5 2 4 6 36 9 72 3
35 8 75 10 88 3 13 8 43 11 67 l6 42 -64 0 c-35 0 -170 2 -300 3 -130 1 -247
0 -259 -3z"/>
<path d="M12875 5512 c-107 -4 -108 -5 -121 -112 -2 -14 -6 -41 -9 -60 -7 -35
-9 -48 -19 -130 -3 -25 -8 -56 -11 -70 -3 -14 -8 -54 -11 -90 -3 -35 -7 -67
-9 -70 -2 -3 -6 -30 -9 -60 -4 -30 -9 -66 -11 -80 -7 -38 -13 -79 -21 -140 -4
-30 -8 -64 -10 -75 -35 -234 -34 -335 1 -413 30 -65 62 -97 128 -127 43 -20
61 -23 165 -20 64 2 130 6 147 10 39 8 126 56 132 72 3 7 10 13 17 13 15 0 90
115 104 160 6 19 16 67 22 105 6 39 13 81 15 95 3 14 7 45 11 70 3 25 8 56 10
70 3 14 6 39 8 56 2 17 7 51 11 75 3 24 8 55 10 69 2 14 7 45 11 70 3 25 8 56
9 70 2 14 4 25 5 25 1 0 3 14 5 30 6 64 17 151 21 165 2 8 6 36 9 62 3 25 8
56 10 68 4 19 17 126 17 140 1 20 -3 30 -10 26 -4 -2 -52 -6 -107 -7 -125 -3
-135 -6 -134 -33 1 -11 -1 -37 -5 -56 -3 -19 -8 -52 -11 -72 -3 -21 -7 -55
-10 -75 -10 -72 -15 -108 -20 -133 -2 -14 -7 -47 -10 -75 -14 -111 -25 -187
-31 -215 -2 -14 -6 -43 -9 -65 -2 -22 -7 -56 -10 -75 -3 -19 -8 -51 -10 -70
-3 -19 -6 -44 -9 -56 -2 -12 -7 -45 -11 -75 -8 -66 -25 -129 -36 -129 -4 0
-10 -9 -14 -19 -13 -40 -114 -57 -161 -26 -26 17 -41 63 -38 115 3 48 14 148
19 185 2 17 7 53 10 80 4 28 8 61 11 75 2 14 7 45 10 70 2 25 7 56 9 70 3 14
7 50 11 80 3 30 8 64 10 75 3 11 7 40 9 65 3 25 7 56 10 70 6 28 14 86 20 140
2 19 6 44 8 55 3 12 7 36 9 55 3 34 2 35 -37 40 -22 3 -67 4 -100 2z"/>
<path d="M14006 5513 c-1 -1 -72 -3 -157 -3 -86 -1 -161 -5 -166 -8 -6 -4 -14
-32 -18 -62 -4 -30 -8 -57 -10 -60 -1 -3 -6 -36 -10 -75 -4 -38 -8 -72 -10
-75 -1 -3 -6 -32 -9 -65 -4 -33 -9 -67 -11 -75 -2 -8 -7 -42 -10 -75 -3 -33
-8 -69 -10 -80 -5 -23 -13 -81 -21 -140 -8 -73 -15 -120 -19 -135 -2 -8 -7
-42 -10 -75 -4 -32 -8 -62 -10 -65 -2 -3 -6 -37 -10 -75 -4 -39 -9 -72 -10
-75 -2 -3 -6 -30 -10 -60 -3 -30 -10 -80 -15 -110 -5 -30 -12 -71 -15 -91 l-6
-35 178 3 c246 4 293 4 302 -1 14 -9 30 10 36 44 3 19 7 46 10 60 2 14 7 43
10 65 3 23 7 51 10 63 4 25 14 24 -140 26 l-110 1 1 30 c1 35 11 120 18 151 5
25 19 124 19 142 0 12 45 15 170 12 46 -1 57 2 57 14 0 18 0 17 12 66 4 19 11
63 14 97 7 75 -2 83 -103 83 -108 0 -111 2 -102 60 4 27 10 73 14 102 7 63 21
127 29 136 4 3 59 7 122 7 89 1 118 5 124 16 4 8 11 43 14 79 8 79 15 128 21
158 4 16 1 22 -12 23 -10 0 -49 1 -86 2 -38 1 -70 1 -71 0z"/>
<path d="M8400 5468 c-8 -24 -14 -45 -15 -48 -1 -3 -4 -12 -8 -20 -11 -27
-218 -625 -222 -640 -3 -12 -64 -187 -98 -280 -3 -8 -12 -35 -20 -60 -7 -25
-36 -109 -63 -188 -34 -102 -45 -145 -37 -150 10 -6 47 -7 194 -3 34 1 38 4
55 49 10 26 19 49 19 52 2 15 38 116 44 122 3 4 59 9 123 11 101 4 118 2 123
-12 4 -9 9 -59 11 -111 3 -52 7 -100 9 -106 2 -8 39 -11 117 -9 122 4 154 8
151 21 -1 10 -11 140 -18 239 -2 33 -6 92 -10 130 -3 39 -7 102 -10 140 -3 39
-8 108 -11 155 -7 103 -10 137 -19 265 -3 55 -8 116 -10 135 -5 47 -17 235
-19 288 -1 26 -7 47 -16 52 -8 5 -69 10 -136 10 l-121 0 -13 -42z m83 -432 c2
-20 -1 -36 -5 -36 -5 0 -6 -5 -2 -11 4 -7 9 -78 11 -158 2 -80 5 -177 6 -216
l2 -70 -72 -1 c-40 0 -78 3 -85 7 -9 6 2 58 41 196 29 103 56 193 59 198 4 6
7 15 7 20 1 18 29 115 32 111 2 -2 5 -20 6 -40z"/>
<path d="M9866 5497 c-8 -7 -17 -38 -21 -72 -6 -62 -17 -144 -40 -300 -8 -53
-12 -85 -25 -180 -14 -106 -20 -145 -25 -175 -2 -14 -6 -47 -10 -75 -3 -27
-10 -77 -15 -110 -5 -33 -11 -76 -14 -95 -2 -19 -17 -117 -31 -218 -15 -101
-24 -187 -20 -190 8 -8 495 -10 500 -2 5 8 27 181 29 229 1 24 1 24 -109 25
-60 1 -115 5 -122 9 -14 9 -11 80 7 175 6 35 13 79 14 97 2 18 6 37 9 42 3 4
52 10 109 11 56 2 104 5 106 7 2 2 5 11 7 22 2 10 4 18 5 18 1 0 3 16 6 35 2
19 6 46 8 60 2 14 7 46 10 73 l7 47 -98 0 c-54 0 -104 4 -112 9 -9 6 -11 21
-7 52 4 24 9 57 11 72 9 60 16 103 23 137 l8 35 114 1 c138 2 145 3 138 9 -3
3 -1 27 4 53 4 26 11 70 14 97 3 28 7 60 9 73 2 14 -3 26 -15 32 -26 14 -455
11 -474 -3z"/>
<path d="M12120 5423 c-7 -49 -14 -95 -15 -103 -2 -8 -6 -42 -10 -75 -3 -32
-8 -62 -10 -65 -2 -4 -7 -38 -10 -76 -4 -38 -8 -71 -10 -74 -2 -3 -6 -34 -10
-70 -4 -36 -9 -74 -11 -85 -6 -26 -12 -70 -19 -122 -11 -89 -16 -129 -21 -153
-2 -14 -7 -45 -10 -70 -3 -25 -7 -56 -10 -70 -2 -14 -7 -45 -9 -70 -3 -25 -8
-56 -10 -70 -3 -14 -7 -47 -11 -75 -3 -27 -8 -59 -10 -70 -2 -11 -6 -38 -10
-61 l-5 -40 250 0 c137 1 252 4 256 7 7 8 11 31 20 114 3 33 10 77 15 98 5 26
4 37 -4 38 -6 0 -58 1 -116 3 -58 1 -110 4 -116 8 -10 7 -10 44 2 128 3 25 7
54 9 65 1 11 6 46 10 78 l7 57 57 1 c31 0 76 0 101 0 58 -2 67 5 74 59 3 25 9
59 12 75 9 42 9 103 0 112 -4 5 -50 10 -101 13 -52 3 -96 8 -100 11 -3 3 -1
28 4 56 6 27 12 72 15 99 13 105 19 134 30 135 6 1 61 3 123 3 62 1 114 4 117
6 2 3 8 32 11 65 4 33 9 69 11 80 3 11 7 44 10 73 l6 52 -249 0 -250 0 -13
-87z"/>
<path d="M14319 5506 c-1 -3 -2 -9 -3 -13 -1 -5 -6 -35 -10 -68 -8 -67 -15
-118 -21 -155 -5 -28 -16 -114 -20 -145 -1 -11 -3 -20 -5 -20 -1 0 -3 -18 -5
-40 -2 -22 -6 -56 -9 -75 -8 -54 -15 -100 -22 -155 -3 -27 -7 -52 -9 -55 -2
-3 -6 -34 -10 -70 -3 -36 -8 -72 -10 -80 -2 -8 -7 -40 -10 -70 -3 -30 -8 -62
-10 -70 -2 -8 -7 -35 -10 -60 -7 -62 -13 -102 -25 -190 -17 -113 -20 -134 -25
-150 -4 -13 12 -16 119 -15 68 0 127 2 130 5 3 3 8 24 10 45 3 22 8 57 11 78
3 20 7 54 10 75 3 20 8 55 11 77 7 58 42 284 50 325 7 33 8 31 25 -40 10 -41
21 -91 24 -110 9 -53 19 -107 30 -160 3 -14 7 -38 10 -55 2 -16 7 -41 10 -55
3 -14 7 -38 10 -55 5 -25 13 -66 21 -97 1 -5 2 -14 3 -21 1 -10 28 -13 120
-12 66 0 122 3 125 6 10 10 13 54 5 84 -4 17 -10 41 -13 55 -3 14 -10 50 -16
80 -7 30 -13 64 -15 75 -2 11 -6 31 -8 45 -15 69 -46 239 -48 267 -3 29 5 42
61 100 116 120 149 201 156 381 3 91 -16 192 -38 192 -4 0 -8 6 -8 14 0 32
-107 102 -170 112 -89 14 -419 30 -421 20z m326 -252 c19 -9 41 -27 50 -40 32
-50 24 -149 -19 -233 -20 -38 -78 -77 -127 -86 -51 -9 -63 9 -54 82 4 32 9 69
10 83 13 110 18 140 26 173 9 34 13 37 45 37 20 0 51 -7 69 -16z"/>
</g>
</svg>
