<svg xmlns="http://www.w3.org/2000/svg" width="380" height="357" viewBox="0 0 380 357">
  <g fill="none" transform="rotate(30 227.11 253.789)">
    <path fill="#406324" d="M236.133,1.483 C246.509,9.857 241.017,19.553 239.957,30.788 C238.342,47.848 253.557,36.413 263.73,35.024 C295.083,30.742 252.32,83.763 244.951,90.424 C237.16,97.463 222.81,113.012 244.872,110.81 C264.764,108.826 286.648,99.672 305.756,111.147 C344.868,134.638 202.331,181.529 216.38,210.061 C220.931,219.295 252.953,210.118 261.08,209.284 C278.538,207.484 292.236,207.684 308.537,213.942 C316.514,217.007 339.389,224.78 336.571,237.014 C333.853,248.826 313.56,251.654 307.95,261.131 C302.014,271.156 321.55,275.857 314.05,287.346 C306.496,298.925 278.103,295.964 266.596,296.346 C230.281,297.574 177.113,286.285 147.94,313.922 C134.54,326.622 128.993,348.637 121.54,365.479 C114.802,380.699 109.489,396.023 102.128,410.96 C98.598,418.128 93.986,449.485 83.804,444.68 C74.141,440.115 89.669,419.098 92.597,412.543 C101.573,392.461 111.229,371.416 117.749,350.453 C122.403,335.491 130.27,315.215 127.709,299.297 C124.476,279.204 101.075,264.854 84.609,256.161 C65.509,246.072 47.85,234.353 29.121,223.934 C17.521,217.482 -10.943,201.897 5.086,185.646 C9.074,181.6 19.647,182.141 21.258,176.104 C22.099,172.957 12.751,157.529 12.258,152.739 C8.635,117.773 43.435,136.724 60.951,146.294 C80.894,157.194 98.172,174.955 119.196,184.056 C127.291,187.561 133.696,189.623 131.902,177.756 C130.159,166.191 116.216,153.589 107.91,146.009 C90.23,129.876 74.079,118.845 66.228,95.109 C63.928,88.149 62.307,79.989 69.928,76.28 C79.115,71.808 80.665,80.709 78.928,67.938 C77.89,60.315 75.068,55.747 83.328,50.895 C95.315,43.853 113.217,56.065 122.214,64.475 C134.745,76.186 146.761,91.281 155.153,101.703 C162.271,92.603 155.282,65.681 155.167,55.252 C155.031,42.846 156.177,29.037 164.089,18.865 C179.263,-0.644 192.85,23.383 201.689,36.774 C211.331,34.619 210.955,17.483 215.158,10.025 C217.55,5.786 219.111,2.71 224.023,0.959 C228.89,-0.784 232.8,2.711 236.133,1.483 Z"/>
    <path fill="#73942F" d="M135.253,307.616 C153.66,260.889 98.895,230.46 69.332,206.432 C88.551,210.232 104.487,228.562 118.354,240.911 C127.34,248.911 139.123,258.611 142.632,270.66 C148.407,251.165 153.072,231.52 154.945,210.947 C156.295,196.114 149.396,178.047 145.045,164.147 C140.892,150.86 133.069,130.277 122.056,121.695 C145.947,143.943 153.119,172.429 161.415,201.995 C169.872,182.446 172.847,157.964 175.733,136.657 C177.695,122.149 177.509,101.781 183.613,88.476 C183.767,97.62 179.37,119.639 181.35,128.153 C185.235,117.863 201.21,92.418 208.621,83.904 C204.797,103.714 187.941,120.398 181.998,139.542 C177.537,153.924 172.847,182.942 171.951,197.97 C185.951,182.822 208.202,151.87 228.864,145.64 C206.548,163.119 190.594,185.199 173.319,206.932 C165.27,217.057 162.907,227.161 160.347,239.517 C158.46,248.629 152.291,265.539 153.602,274.948 C170.802,264.765 185.173,253.727 205.069,249.886 C215.869,247.799 235.434,243.098 244.517,250.072 C213.54,256.008 183.447,257.351 158.972,278.972 C146.968,289.578 140.684,308.779 135.253,307.616 Z"/>
  </g>
</svg>
