<svg xmlns="http://www.w3.org/2000/svg" xmlns:xlink="http://www.w3.org/1999/xlink" width="724" height="670" viewBox="0 0 724 670"><defs><clipPath id="b"><rect width="724" height="670"/></clipPath></defs><g id="a" clip-path="url(#b)"><g transform="translate(-194.308 112.14) rotate(-30)"><path d="M289.893,99.982s43.47,92.38,72.452,101.434,47.091-5.433,47.091-5.433-14.487,83.317,48.91,117.732S597.817,282.93,597.817,282.93s1.811,27.164,23.542,19.92,59.776-36.226,59.776-36.226-39.848,57.965-38.037,99.623,47.091,56.146,47.091,56.146-70.763,16.671-75.168,60.681c-4.527,45.281,7.244,81.507,34.415,96a283.527,283.527,0,0,0,55.248,21.731s-67.925-3.622-96.907,23.55A236.057,236.057,0,0,0,563.4,681.416s-21.739-48.91-54.343-32.6-45.281,43.47-45.281,43.47-30.793-43.47-39.848-67.019-10.865-36.226-10.865-36.226S427.553,697.714,451.1,752.057a938.483,938.483,0,0,0,47.091,94.183s-21.739,1.811-27.171-5.433-34.415-70.641-45.281-121.354-25.36-126.795-25.36-126.795-25.353,21.739-39.848,56.154-30.793,56.146-30.793,56.146-1.811-36.226-32.6-27.164-63.39,30.786-63.39,30.786-21.739-28.975-67.019-23.542S101.519,695.9,101.519,695.9s79.7-48.9,72.452-96-92.38-45.281-92.38-45.281,50.721-21.731,34.415-63.4S34.5,377.113,34.5,377.113s137.66,50.721,186.562,23.549-19.92-148.526-19.92-148.526,38.037,16.3,72.452-19.928,16.3-132.227,16.3-132.227" transform="translate(0 0)" fill="#406324"/><path d="M227.388,116.884c14.358,89.914,30.3,168.187,56.146,256.3,5.471,18.634,20.536,51.36,20.833,70.641-50.592-15.652-203.112-94.716-256.3-112.7,26.015,25.224,182.279,87.13,206.49,101.83,25.353,15.393,42.3,22.324,61.5,38.889,7.951-14.655,21.708-27.331,31.288-41.56,11.756-17.462,38.3-45.866,49.283-63.808,6.4-10.447,21.723-28.313,39.985-48.362q2.18-2.385,4.4-4.809c34.08-37.124,76.37-80.137,90.66-97.424-47.989,49.869-174.525,176.983-212.3,234.042-12.912-23.823-19.9-59.463-26.083-86.019-6.863-29.424-12.463-59.136-22.423-87.723-12.92-37.078-19.387-76.272-29.477-114.818A422.613,422.613,0,0,0,227.388,116.884Z" transform="translate(89.676 111.704)" fill="#73942f"/><path d="M63.639,137.525,170.9,201.68l-4.01-24.058Z" transform="translate(192.575 248.118)" fill="#73942f"/><path d="M77.867,212.609,134,130.411,84.884,250.7Z" transform="translate(286.607 201.102)" fill="#73942f"/><path d="M277.077,170.85,172.209,208.2l-119.4,42.523,222.96-89.041Z" transform="translate(120.992 407.753)" fill="#73942f"/><path d="M83.746,172.127l229.812,18.807L88.986,160.991Z" transform="translate(325.46 403.201)" fill="#73942f"/><path d="M60.613,146.342l12.726,41.007,22.624,9.9Z" transform="translate(172.577 306.39)" fill="#73942f"/><path d="M121.291,163.88,56.246,189.333l48.784-36.765,19.8,3.535Z" transform="translate(143.714 347.534)" fill="#73942f"/><path d="M97.316,214.677l3.535-80.6,6.363,72.823Z" transform="translate(415.145 225.329)" fill="#73942f"/><path d="M204.5,143.617,97.037,159.878l15.948-16.547Z" transform="translate(413.303 286.49)" fill="#73942f"/><path d="M99.87,176.776l-38.886-9.9,54.44,5.656Z" transform="translate(175.033 442.105)" fill="#73942f"/><path d="M78.377,171.863l-14.14,33.23,29.695-37.472Z" transform="translate(196.526 447.018)" fill="#73942f"/><path d="M96.294,164.761l41.714,24.746-27.574-26.16Z" transform="translate(408.39 418.769)" fill="#73942f"/><path d="M96.387,187.353l36.765-28.281L109.82,191.595Z" transform="translate(409.004 390.521)" fill="#73942f"/><path d="M106.654,147.769,67.768,119.488,110.9,167.566Z" transform="translate(219.862 128.916)" fill="#73942f"/><path d="M73.436,171.864l33.937-53.026L73.736,148.454Z" transform="translate(257.322 124.617)" fill="#73942f"/></g></g></svg>