<svg xmlns="http://www.w3.org/2000/svg" xmlns:xlink="http://www.w3.org/1999/xlink" width="724" height="670" viewBox="0 0 724 670"><defs><clipPath id="b"><rect width="724" height="670"/></clipPath></defs><g id="a" clip-path="url(#b)"><g transform="matrix(0.809, -0.588, 0.588, 0.809, -536.371, -76.012)"><path d="M359.2,438.235c-2.57,22.175,5.732,53.436-.568,73.669-8.511-2.522-14.871-10.161-22.9-13.8-7.723,14.859,13.216,39.091,14.059,55.313-17.149-2.5-28.051-13.718-20.4,11.052,4.495,14.537,16.646,29.366,12.528,45.857-8.47-.807-14.513-6.844-22.546-8.7-9.731,17.973,12.714,35.786,9.325,54.148-9.4-.944-27.7-17.167-35.7-11.536-9.749,6.862.245,28.021,2.451,36.455,4.441,16.987,27.411,81.864-9.151,63.956-9.163-4.489-28.278-27.071-33.514-8.7-2.738,9.605,14.788,33.741,17.19,44.721,2.409,11,7.262,25.343-5.075,30.854-12.528,5.589-25.875-12.851-38.3-6.157-32.271,17.388,23.443,80.136,17.7,101.559-4.029-1.847-9.8-2.158-13.538-4.878-7.818,15.792,12.444,29.928,5.846,46.939-9.6-1.943-15.553-10.257-24.531-12.893-23.419,27.919,24.758,62.742,33.933,84.452-35.056,12.7,18.721,43.573,26.073,55.158,10.054,15.839,12.176,27.3,27.77,40.944,22,19.247,38.607,19.7,67.154,13.867,39.45-8.057,75.9-24.68,113.208-38.386,7.764-2.851,24.644-10.03,32.66-9.031,16.121,2.02,17.214,17.525,23.036,31.482,11.847,28.416,27.86,54.309,40.227,82.127,9.02,20.275,16.2,43.712,26.282,63.138,4.333,8.35,15.481,23.436,22.821,9.121,4.931-9.623-21.142-46.718-25.732-56.281-9.863-20.532-19.558-39.88-25.541-61.99-5.4-19.934-22.552-46.383-23.078-66.688-.634-24.16,69.688-50.49,92.055-59.133,22.5-8.7,46.79-13.628,70.5-18.17,18-3.443,38.314-17.77,42.367-38.272,2.319-11.733-7.579-15.762-8.464-26.336-.938-11.3,8.141-22.642,11.769-32.94,8.888-25.236,10.61-51.29,6.443-77.423-9.534,4.465-28.087,20.34-39.384,14.883-12.45-6.019-1.59-25.069-6.927-38.188-5.368.042-11.106,1.9-16.491,4.346-9.743-10.657,8.1-39.695,7.179-54.22-5.846.711-11.865,2.636-17.525,4.172-2.415-12.773,9.145-29.988,2.074-41.524-10.287-16.772-26.222,3.144-36.891,11.046-35.212,26.1-7.25-35.953-40.627-17.25-4.232-16.025,5.846-33.06-4.752-47.8-4.3,3.515-8.84,7.28-13.09,10.855-10.46-45.284-21.942-2.265-50.047-.652-12.672-22.982-4.853-47.286-12.857-69.6-9.934-27.722-20.7-2.236-33.126,5.338C468.554,634.2,483.952,550.4,441.22,578.377c-14.734-17.143,1.345-81.278-36-57.818-12.188-9.121-.843-25.911-6.856-37.961-3.915-7.842-9.761-5.481-12.9-9.294C373.265,458.5,381.873,435.928,359.2,438.235Z" transform="translate(0 0)" fill="#406324"/><path d="M446.262,945.909c-17.573,1-33.951-6.755-51.864-7.526-18.78-.807-36.144,3.312-54.775,2.469-18.661-.843-37.872-1.249-55.833-5.439-17.8-4.148-32.391-13.467-50.436-15.589,31.625,6.724,59.037,15.009,92.444,13.18,29.061-1.59,59.856-3.06,90.023-2.63-69.957-22.241-128.588-77.936-193.65-112.18,50.406,16.886,87.226,45.379,125.868,64.7,34.369,17.185,47.047,27.866,71.727,39.6,2.881-37.125-45.773-102.748-66.012-132.844-25.164-37.423-62.5-78.6-88.768-109.275,58.4,41.135,90.77,92.235,124.147,144.242,18.924,29.48,34.662,50.442,45.481,83.95,1.59-35.385-36.8-115.193-55.863-161.839-15.953-39.019-24.411-80.974-39.306-120.674-20.083-53.538-36.084-107.309-46.951-162.168-.753,30.3,25.511,67.782,35.923,95.492,8.129,21.626,11.452,44.518,18.452,66.58,13.975,44.034,32.14,90.405,48.242,132.909q17.259,45.546,35.863,91.152c7.161,17.579,9.874,38.141,18.368,54.494,13.1-56.676-1.805-127.237-10.508-183.853-6.754-43.962-13.766-93.065-11.243-137.511,9.33,34.393,7.227,71.374,14.411,106.717,6.354,31.231,11.733,61.954,14.818,93.651,3.993,41.034,9.868,80.9,8.78,122.383,17.173-42.838,23.192-90.848,40.788-133.286,14.423-34.781,29.306-75.367,36.676-111.989,3.563,24.776-11.4,65.421-16.981,90.5-4.489,20.185-13.048,39.372-19.115,59.108-9.928,32.313-22.845,65.182-31.333,97.554,36.013-42.594,92.5-68.05,137.255-98.72-12.08,21.4-38.858,34.727-57.01,51.47C539.309,875.826,523,882.21,503.446,899.335c-11.237,9.844-25.5,15.606-35.5,29.055C461.713,936.752,459.77,946.5,446.262,945.909Z" transform="translate(81.856 128.499)" fill="#73942f"/></g></g></svg>