<svg xmlns="http://www.w3.org/2000/svg" xmlns:xlink="http://www.w3.org/1999/xlink" width="724" height="670" viewBox="0 0 724 670"><defs><clipPath id="b"><rect width="724" height="670"/></clipPath></defs><g id="a" clip-path="url(#b)"><g transform="translate(-409.942 -481.51)"><path d="M569.505,1084.272s10.4,16.983,19.959,16.384,65.743-92.819,78.7-113.6,30.028-58.677,34.874-51.72,22.514,90.127,47.7,136,63.787,66.012,96.129,73.053,45.429.779,44.008-5.356-8.78-44.829,31.78-72.009,78.059-53.657,90.8-61.454,15.2-18.07,32.068-21.985,32.81,2.092,37.878-3.934-15.5-31.96-26.141-56.963-16.559-36.564-35.1-46.809-40.362-6.8-38.029-31.581,32.5-68.949,35.077-85.706-6.423-48.608,3.467-68.68,17.98-68.812,20.672-92.058,7.4-30.807,11.156-49.453-7.023-58.167-9.621-62.413-68.524,32.049-111.932,46.964-142.272,34.6-180.834,56.476S700.73,646.6,680.082,648.153s-61.988-37.339-81.46-37.674-26.67-3.509-25.357,9.115-3.023,42.719-30.628,49.118-50.988-10.8-50.856,3.712,12.69,61.7-4.265,93.107-15.028,74.588-5.8,93.461,39.474,58.719,83.727,61.388,111.507,0,110.572,9.913-28.025,53.364-47.583,80.525S569.505,1084.272,569.505,1084.272Z" transform="translate(0 0)" fill="#406324"/><path d="M984.807,493.019s-32.616,42.553-54.748,66.71-56.953,63.971-71.528,78.423-49.6,60.755-66.243,80.5-67.452,82.367-67.452,82.367.18-43.545-2.914-79.93S708.047,650,708.047,650s5.379,61.662,7.665,86.943-.973,69.5-.973,69.5-21.792,25.692-33.821,44.428l-19.25,29.971s-23.43-73.247-34.647-102.765c-8.553-22.509-33.655-62.81-50.79-89.687S533.4,639.711,533.4,639.711,558.7,674.481,581.6,713s38.822,67.268,47.932,94.283,24.45,75.235,24.45,75.235-38.274-35.162-72.529-51.866-94.32-26.174-94.32-26.174,66.829,25.716,94.259,40.687,74.938,48.121,74.938,48.121,38.666,22.188,62.091,55.753,75.9,104.3,75.9,104.3,1.261-16.388-19.619-45.675-36.678-50.01-53.675-68.864-48.986-47.333-48.986-47.333,85.687,8.723,139.263,17.994,115.72,13.455,115.72,13.455-45.354-15.9-76.591-18.759-93.513-15.071-116.726-18.07-57.86-6.73-57.86-6.73,24.734-34.387,38.638-51.918,27.945-27.034,42.992-31.927,41.2-10.589,59.99-13.068,41-4.1,41-4.1-12.78-6.886-56.854-2.116-63.6,18.693-63.6,18.693,61.567-64.977,83.557-97.159,79.283-94.613,79.283-94.613Z" transform="translate(46.123 27.432)" fill="#73942f"/></g></g></svg>